<?xml version="1.0" encoding="utf-8"?>
<!-- Generator: Adobe Illustrator 25.1.0, SVG Export Plug-In . SVG Version: 6.00 Build 0)  -->
<svg version="1.1" id="Lager_1" xmlns="http://www.w3.org/2000/svg" xmlns:xlink="http://www.w3.org/1999/xlink" x="0px" y="0px"
	 viewBox="0 0 463.5 339.81" style="enable-background:new 0 0 463.5 339.81;" xml:space="preserve">
<style type="text/css">
	.st0{fill:#FFFFFF;stroke:#000000;stroke-width:0.5;stroke-miterlimit:10;}
</style>
<g id="Svart">
	<path class="st0" d="M461.14,304.35c0.54-3.51-1.13-5.55-4.57-5.91c-3.6-0.38-6.19,1.04-8.34,3.84c-3.31,4.31-7.84,7.14-12.72,9.27
		c-7.94,3.47-16.25,3.92-24.45,1.34c-5.58-1.75-11.05-4.11-14.9-8.96c-0.54-0.68-1.24-1.25-1.9-1.83c-0.12-0.1-0.37-0.05-0.56-0.07
		c-0.3,0.33-0.38,0.71-0.13,1.06c2.45,3.44,5.13,6.66,8.53,9.24c2.46,1.86,5.07,3.37,7.99,4.31c8.19,2.63,16.48,3.2,24.94,1.4
		c4.4-0.94,8.85-1.65,13.38-1.86c4.74-0.22,8.32,1.96,10.75,5.51c2.88,4.21,3.97,8.97,0.75,13.73c-0.12-0.15-0.25-0.29-0.38-0.42
		c0.38-1.01,0.84-1.99,1.11-3.03c0.56-2.17,0.4-4.31-0.82-6.25c-2.81-4.47-6.87-6.88-12.15-7.16c-4.83-0.25-9.58,0.4-14.35,1.16
		c-7.2,1.14-14.49,1.53-21.72,0.32c-4.06-0.68-7.85-2.41-11.48-4.42c-0.72-0.4-1.41-1.48-2.29-0.9c-0.86,0.57-0.23,1.63-0.09,2.44
		c0.7,4.03,0.55,8.02-0.28,12.01c-1.87,9.01-9.16,11.46-16.93,8.34c-3.54-1.43-4.74-5.09-4.83-8.81c-0.08-3.1,1.64-5.13,4.45-6.29
		c2.39-0.99,4.64-0.66,6.66,0.89c1.7,1.3,2.38,3.13,2.01,5.21c-0.36,2-1.75,3.24-3.59,3.96c-1.36,0.53-3.42-0.27-4.08-1.52
		c-0.38-0.72-0.21-1.37,0.46-1.78c0.3-0.18,0.76-0.25,1.11-0.17c0.47,0.1,0.51,0.58,0.37,0.95c-0.32,0.81-0.51,1.58,0.6,1.85
		c0.99,0.25,1.94,0.18,2.62-0.8c0.6-0.86,0.75-1.81,0.64-2.81c-0.23-2.15-2.1-3.79-4.7-4.16c-2.27-0.32-3.77,0.5-4.74,2.59
		c-2.05,4.45,0.4,9.23,5.21,10.15c6.78,1.3,11.62-2.1,12.57-8.97c0.62-4.45,0.27-8.87-1.46-13.03c-3.36-8.07-7.54-15.76-11.24-23.68
		c-0.16-0.34-0.34-0.72-1.17-0.54c-0.18,1.58-0.35,3.28-0.56,4.97c-0.8,6.26-1.97,12.42-4.68,18.18c-2.71,5.75-7.3,9.52-12.77,12.56
		c-5.48,3.04-11.27,3.56-17.3,3.22c-0.38-0.02-0.76-0.06-1.13-0.16c-6.28-1.78-11.93-4.73-17.11-8.73
		c-5.37-4.15-11.2-7.62-17.21-10.76c-2.47-1.29-5.17-1.84-7.95-1.99c-7.59-0.41-14.35,5.72-14.77,13.35
		c-0.17,3.16-0.19,6.25,1.56,9.12c2.6,4.27,5.87,7.13,11.29,7.17c3.96,0.03,7.08-1.11,9.52-4.22c3.15-4.01,3.4-10.79,0.52-14.97
		c-0.88-1.28-2.07-2.2-3.55-2.46c-3.19-0.56-6.05,0.24-8.29,2.7c-2.35,2.58-3.33,5.55-2.16,8.96c1.12,3.26,5.93,4.86,8.85,2.99
		c0.72-0.46,0.91-1.05,0.23-1.67c-0.55-0.5-1.05-0.96-0.46-1.7c0.32-0.4,0.77-0.59,1.3-0.39c0.93,0.36,0.99,1.09,0.89,1.93
		c-0.27,2.17-3.01,4.25-5.39,4.05c-3.86-0.32-7.25-2.9-8.19-6.23c-1.15-4.09,0.01-7.71,3.28-10.27c3.93-3.06,9.7-3.08,14.06-0.05
		c3.78,2.63,5.28,7.56,3.63,12.36c-2.76,8.08-8.46,10.74-16.32,9.68c-8.07-1.09-13.2-7.89-12.56-16.09
		c0.11-1.44,0.17-2.89,0.26-4.33c-0.19-0.09-0.38-0.17-0.57-0.26c-2.3,3.53-4.61,7.07-6.91,10.6c-0.21-0.14-0.42-0.29-0.63-0.43
		c2.02-3.96,3.07-8.38,5.76-12.01c0.17-0.21,0.34-0.42,0.51-0.64c0.17-0.33,0.36-0.69-0.07-0.92c-0.1-0.05-0.4,0.25-0.6,0.39
		c-0.21,0.17-0.42,0.35-0.63,0.52c-3.69,2.95-6.86,6.45-10.25,9.71c-2.14,2.06-4.47,3.82-7.12,5.17c-8.22,4.18-17.44,0.46-21.9-6.93
		c-0.24-0.4-0.41-0.9-0.45-1.37c-0.06-0.79,0.32-1.35,1.19-1.31c0.67,0.03,1.19,0.45,1.06,1.12c-0.68,3.59,1.87,4.88,4.38,6.03
		c3.52,1.61,7.25,1.61,10.97,0.77c5.3-1.18,9.79-3.96,13.94-7.34c2.9-2.36,5.53-5,8.14-7.68c3.46-3.55,7.32-6.5,12.14-8.05
		c4.39-1.41,8.74-1.31,12.97,0.41c3.82,1.56,7.35,3.68,10.63,6.24c6.2,4.84,12.58,9.42,19.94,12.42
		c10.66,4.35,23.95,1.12,30.99-7.75c2.23-2.8,4.01-5.95,5.03-9.46c1.9-6.55,2.49-13.24,2.36-20.53c-1.43,1.56-1.48,3.11-1.67,4.54
		c-0.65,4.87-2.54,9.25-5.14,13.36c-2.98,4.69-6.7,8.66-11.57,11.45c-8.1,4.64-21.43,0.24-24.51-9.66
		c-2.11-6.78,0.57-13.99,6.96-16.91c4.6-2.1,9.28-1.68,13.4,1.38c3.33,2.47,4.17,6.18,3.6,10.04c-0.55,3.7-2.89,6.14-6.61,7.09
		c-0.01-0.42-0.02-0.84-0.03-1.26c0.34-0.2,0.67-0.41,1.02-0.58c2.39-1.2,3.94-3.1,3.83-5.81c-0.12-3.17-1.28-5.93-4.31-7.56
		c-4.2-2.26-8.84-1.95-12.15,0.86c-3.41,2.89-4.81,7.73-3.46,12.05c2.83,9,12.4,11.5,19.34,8.38c6.51-2.93,9.75-8.53,12.07-14.88
		c2.73-7.49,3.22-15.33,3.78-23.18c0.45-6.37,1.04-12.74,1.4-19.1c0.33-5.78,1.79-11.22,3.47-16.61c1.26-4.03,3.73-7.57,6.03-11.16
		c1.89-2.95,4.19-5.59,6.17-8.47c0.71-1.04,1.7-1.9,2.57-2.83c3.73-4.03,7.91-7.66,10.93-12.31c2.96-4.56,5.06-9.52,6.44-14.78
		c1.49-5.65-0.35-11.5-5.94-14.89c-5.04-3.06-10.5-4.53-16.28-5.07c-2.19-0.2-2.49,0.18-1.66,2.27c1.62,4.06,2.56,8.26,2.59,12.63
		c0.05,9.5-3.68,17.54-9.58,24.75c-3.79,4.64-8.5,8.14-13.6,11.16c-3.13,1.85-5.86,4.31-9.16,5.89c-1.49,0.72-1.29,2.09-0.94,3.35
		c0.62,2.21,1.82,4.17,3.32,5.86c4.42,4.98,8.33,10.41,13.1,15.1c1.86,1.83,1.71,6.67-0.21,8.29c-0.9,0.76-2.03,0.7-3.1,0.67
		c-4.01-0.11-8.03-0.26-12.04-0.42c-1.89-0.07-2.18,0.3-1.36,1.93c0.31,0.61,0.7,1.18,1.05,1.77c1.47,2.46,1.21,4.14-1.11,5.78
		c-1.27,0.9-2.68,1.69-4.14,2.23c-11.25,4.14-21.97,9.52-33.07,14.01c-0.91,0.37-1.78,0.82-2.64,1.3c-3.18,1.78-6.35,2.44-9.68,0.33
		c-0.81-0.51-1.81-0.75-2.75-1.02c-0.85-0.24-1.77-0.36-2.62-0.04c-0.98,0.38-0.41,1.39-0.7,2.08c-1.06,2.57-3.16,3.67-5.74,3.95
		c-4,0.43-8.01,0.67-12.03,0.14c-0.57-0.07-1.24,0.05-1.5-0.64c-0.28-0.74,0.04-1.41,0.64-1.8c1.24-0.81,2.34-1.78,3.38-2.82
		c0.55-0.55,1.3-1.07,1.19-1.94c-0.33-2.79,1.95-3.29,3.67-3.74c2.27-0.6,4.58-1.01,6.79-1.89c0.78-0.31,1.74-0.22,2.62-0.2
		c5.78,0.13,11.24-0.8,16.54-3.42c4.55-2.25,9.57-3.55,14.03-6.07c2.14-1.21,4.26-2.44,6.37-3.7c1.46-0.87,2.2-2.19,2.19-3.92
		c-0.01-1.73-0.49-2.33-2.28-2.31c-3.83,0.06-7.66,0.27-11.45,0.88c-1.37,0.22-2.62,0.33-4.01-0.22c-2.1-0.83-3.53,0.38-3.4,2.72
		c0.09,1.47-0.29,2.83-1.17,3.85c-2.51,2.89-5.33,5.47-8.51,7.63c-0.4,0.27-0.86,0.49-1.48,0.29c-0.4-1.09-0.13-2.19,0.1-3.35
		c0.51-2.58,1.11-5.18,0.08-7.8c-0.35-0.88-0.13-1.84,0.5-2.49c1.48-1.56,2.58-3.49,4.56-4.55c2.44-1.31,4.64-2.95,6.63-4.87
		c1.71-1.65,3.64-2.49,6.12-2.21c1.84,0.21,3.73,0.01,5.59-0.02c0.49-0.01,1.02-0.04,1.21-0.61c0.18-0.54-0.14-0.92-0.52-1.27
		c-1.75-1.58-3.48-3.18-5.26-4.72c-0.6-0.52-1.07-1.06-1.45-1.79c-1.61-3.03-3.35-5.99-4.99-9.01c-0.46-0.85-1.03-1.37-2.01-1.5
		c-0.57-0.08-1.15-0.29-1.66-0.55c-2.45-1.26-2.52-1.31-3.79,1.14c-3.21,6.2-6.6,12.29-10.5,18.08
		c-7.03,10.45-14.91,20.24-23.33,29.6c-8.89,9.86-18.12,19.39-28.2,28.04c-4.83,4.14-9.49,8.5-14.89,11.96
		c-1.28,0.82-2.11,0.8-3.22-0.3c-5.17-5.11-10.38-10.17-15.65-15.18c-7.14-6.78-13.36-14.39-19.85-21.76
		c-3.42-3.88-6.91-7.73-9.91-11.93c-8.72-12.21-16.82-24.82-22.53-38.79c-0.74-1.81-1.36-3.68-2.01-5.53
		c-0.66-1.87-0.73-1.86-2.41-1.04c-2.73,1.33-4.6,3.22-5.93,6.12c-1.62,3.53-3.59,6.99-6.68,9.6c-0.97,0.82-1.72,1.88-2.57,2.83
		c-0.52,0.57-1.32,1.11-0.99,1.98c0.37,0.96,1.35,0.59,2.08,0.54c2.57-0.17,5.09-0.22,7.4,1.25c1.51,0.97,2.78,2.19,3.96,3.51
		c2.02,2.28,4.03,4.54,6.49,6.39c1.07,0.81,1.9,1.97,2.75,3.03c0.68,0.85,0.81,1.9,0.03,2.69c-0.92,0.93-0.73,1.91-0.59,3
		c0.34,2.51,0.6,5.03,0.87,7.41c-0.94,0.57-1.67,0.32-2.19-0.01c-3.56-2.29-6.69-5.1-9.56-8.19c-1.45-1.56-1.61-3.55-1.61-5.57
		c0-2.52-0.57-3.1-2.75-2.41c-1.76,0.55-3.34,0.44-5.1-0.03c-2.42-0.64-4.95-0.99-7.45-1.19c-2.82-0.23-4.67,1.5-4.98,4.24
		c-0.14,1.21,0.73,1.79,1.51,2.33c2.26,1.55,4.53,3.08,6.88,4.48c5.47,3.24,11.21,5.88,17.22,8c2.55,0.9,5.14,1.44,7.78,1.14
		c4.56-0.52,8.76,0.78,12.78,2.47c2.18,0.92,4.37,2.21,5.4,4.97c0.75,2.01,2.3,3.83,4.04,5.34c0.99,0.86,0.77,1.55-0.5,1.72
		c-1.26,0.17-2.55,0.26-3.82,0.21c-3.73-0.15-7.41-0.75-11.06-1.55c-3.38-0.74-3.87-1.5-2.96-4.85c0.04-0.16-0.06-0.37-0.1-0.63
		c-2.46-0.63-4.79-0.35-6.96,1.09c-3.02,2.01-5.91,1.71-8.66-0.54c-3.01-2.46-6.59-3.98-10.09-5.41
		c-9.53-3.88-18.61-8.71-28.02-12.82c-3.14-1.37-3.8-4.03-2.15-7.02c0.46-0.82,1.33-1.47,1.3-2.85c-2.1-0.16-4.2-0.36-6.31-0.46
		c-1.37-0.07-2.75-0.01-4.13,0c-2.47,0.02-4.89-0.14-6.68-2.41c-1.02,1.49-1.11,2.89-1.07,4.35c0.31,10.11,0.11,20.24,1.13,30.32
		c0.69,6.82,2.52,13.19,6.69,18.88c5.55,7.57,17,7.84,23.63,0.42c1.8-2.02,2.96-4.36,3.42-7.06c1.15-6.71-3.82-12.62-10.62-12.59
		c-1.89,0.01-3.72,0.22-5.46,1.02c-4.47,2.06-6.24,7.39-3.88,11.66c1.97,3.56,5.19,4.69,9,3.14c0.45-0.18,0.9-0.37,1.35-0.55
		c0,0,0.17,0.18,0.17,0.18c-2.28,3.68-9.57,2.47-12.07-1.71c-2.23-3.73-2.59-7.69-0.4-11.48c2.03-3.51,5.33-4.98,9.44-4.84
		c5.82,0.2,10.2,2.64,12.66,7.97c1.6,3.48,1.4,7.25-0.04,10.63c-5.41,12.67-20.29,13.53-27.74,6.8c-3.59-3.24-6.21-7.04-8.08-11.44
		c-2.87-6.73-4.36-13.75-4.49-21.07c-0.01-0.59,0.07-1.19-0.27-1.71c-0.09-0.15-0.28-0.24-0.48-0.4c-0.73,0.54-0.51,1.38-0.58,2.07
		c-0.68,7.44-0.53,14.88,0.53,22.27c1.52,10.6,11.46,20.11,20.55,21.91c9.57,1.89,18.08-0.02,25.67-6.14
		c3.2-2.58,6.49-5.05,9.71-7.61c6.21-4.94,13.31-8,21.49-7.41c7.26,0.52,12.75,4.14,16.71,10.17c3.09,4.71,6.56,9.05,11.33,12.22
		c7.88,5.22,15.87,5.75,24.04,0.7c0.33-0.2,0.7-0.35,1.04-0.53c0.22,0.14,0.43,0.28,0.65,0.42c-3.81,5.36-12.89,7.66-19.1,5.48
		c-5.56-1.95-9.82-5.54-13.39-10.1c-1.3-1.66-2.31-3.57-4.16-5.35c-0.41,2.23,0.71,3.82,0.91,5.54c0.22,1.86,0.89,3.6,1.46,5.37
		c-0.36,0.05-0.72,0.1-1.08,0.15c-2.11-3.47-2.87-7.54-4.75-11.42c-0.78,1.26-0.32,2.12-0.25,2.96c0.33,3.91-0.25,7.64-1.96,11.19
		c-2.01,4.16-5.33,6.69-9.76,7.84c-3.42,0.89-6.82,0.67-10.19-0.22c-5.91-1.55-9.56-7.12-8.87-13.51
		c0.64-5.99,5.36-10.47,11.35-10.8c6.48-0.35,11.01,3.4,11.47,9.58c0.26,3.38-1.36,5.85-4.07,7.66c-2.54,1.69-5.23,2.17-8.06,0.68
		c-1.3-0.69-2.15-1.71-2.27-3.22c-0.06-0.72,0.11-1.43,1.01-1.51c0.92-0.08,1.1,0.51,1.15,1.31c0.17,2.52,0.25,2.57,2.61,2.61
		c2.88,0.05,5.65-1.6,6.69-3.99c1.09-2.51,0.2-6.1-1.73-8.18c-4.15-4.47-12.39-2.79-14.59,3.16c-0.34,0.92-0.69,1.86-0.8,2.82
		c-0.87,7.28,1.87,12.15,9.97,13.02c8.8,0.94,15.79-4.56,16.16-12.8c0.23-5.18-1.52-9.64-5.29-13.25c-3.63-3.46-7.9-4.53-12.78-3.41
		c-5.87,1.35-10.81,4.57-15.75,7.79c-2.38,1.56-4.64,3.3-7,4.9c-9.66,6.53-20.28,8.48-31.49,5.6c-5.65-1.45-10.63-4.59-14.24-9.44
		c-3.67-4.92-5.7-10.5-6.53-16.54c-0.46-3.31-0.86-6.63-0.78-9.98c0.03-1.07-0.07-2.14-0.1-3.13c-0.54-0.13-0.82-0.07-0.94,0.24
		c-2.7,6.66-6.87,12.58-9.71,19.17c-1.71,3.96-3.37,7.95-4.17,12.22c-0.76,4.03-0.28,8.06,0.7,11.98c0.61,2.4,2.58,3.86,4.71,5.01
		c-0.08,0.26-0.16,0.53-0.24,0.8c-4.85-1.19-6.66-4.92-7.4-9.28c-0.87-5.18-0.84-10.36,1.17-15.36c0.09-0.24-0.01-0.55-0.02-0.8
		c-0.69-0.48-1.14,0.03-1.6,0.3c-10.73,6.12-22.15,7.51-34.16,5.14c-4.42-0.87-8.75-2.19-13.28-2.56
		c-6.25-0.51-13.64,3.72-16.16,9.38c-1.94,4.35-0.57,8.16,3.62,10.46c2.34,1.28,4.82,1.84,7.38,1.38c3.65-0.64,5.52-2.56,4.9-6.26
		c-0.41-2.44-1.84-3.33-4.21-2.6c-0.36,0.11-0.69,0.37-1.06,0.44c-0.4,0.07-0.79-0.09-0.9-0.54c-0.11-0.42,0.04-0.76,0.4-1
		c0.08-0.05,0.17-0.1,0.26-0.14c1.92-0.8,5.63,0.72,6.92,2.85c1.17,1.92,0.44,4.76-1.62,6.26c-1.64,1.19-3.54,1.75-5.51,1.9
		c-4.21,0.32-7.87-1.28-10.44-4.43c-2.58-3.16-2.41-7.07-0.68-10.62c3.47-7.09,7.87-9.19,13.93-8.62c4.51,0.42,8.96,1.12,13.43,1.79
		c6.44,0.97,12.88,1.33,19.37,0.35c6.42-0.97,11.93-3.77,17.1-7.58c3.36-2.48,6.19-5.36,8.52-8.77c0.37-0.54,1-0.98,0.8-1.79
		c-0.39-0.46-0.79-0.1-0.97,0.13c-4.06,5.26-9.37,8.64-15.48,11.19c-5.27,2.19-10.59,3.43-16.27,3.39
		c-9.21-0.06-16.91-3.83-23.79-9.63c-1.05-0.89-2.09-1.82-2.95-2.88c-1.51-1.84-3.59-2.71-5.68-3.51c-2.21-0.85-5.49,0.18-6.93,2.01
		c-0.91,1.16-1.12,2.46-0.84,3.9c0.3,1.53,1.31,2.04,2.73,2.17c0.62,0.06,1.14,0.52,0.83,1.23c-0.28,0.64-1.03,0.75-1.51,0.47
		c-1.32-0.77-2.51-1.83-2.91-3.32c-0.54-2.01-0.43-4.08,0.2-6.1c0.61-1.96,1.52-2.68,3.52-2.87c2.08-0.19,4.09,0.07,5.86,0.97
		c0.39-0.36,0.62-0.62,0.47-0.9c-1.63-3.07-1.86-6.44-2.1-9.79c-0.34-4.73,0.64-9.1,2.88-13.36c2.01-3.84,4.21-7.58,6.71-11.04
		c1.85-2.56,3.78-5.13,5.68-7.67c2.46-3.28,5.11-6.51,6.33-10.61c0.99-3.31,1.27-6.57,0.07-9.82c-0.27-0.74-0.36-1.5-0.61-2.2
		c-2.64-7.2-11.42-10.85-18.03-6.83c-6.89,4.2-7.09,12.61-3.49,17.87c0.75,1.1,1.89,1.7,3.09,2.17c5.46,2.15,11.1-1.35,11.31-7
		c0.14-3.7-2.39-6.08-5.63-5.25c-1.16,0.3-2.35,0.61-2.14,2.25c0.09,0.74-0.39,1.07-1.05,1.11c-0.27,0.02-0.68-0.05-0.81-0.24
		c-0.39-0.55-0.18-1.07,0.2-1.6c1.62-2.27,4.5-3.18,7.05-2.18c3.42,1.34,4.87,3.32,4.4,6.39c-0.66,4.32-3.54,7.77-7.57,8.86
		c-4.28,1.16-8,0.02-10.94-3.28c-1.92-2.15-2.42-4.88-2.54-7.68c-0.22-5.31,1.9-9.62,5.95-12.86c1.99-1.59,4.63-1.99,7.18-2.23
		c11.23-1.06,18.32,8.29,17.1,18.04c-0.71,5.63-3.48,10.13-7.03,14.3c-4.72,5.55-9.05,11.38-12.23,17.97
		c-2.51,5.2-4.16,10.59-3.5,16.49c1.33,11.84,10.53,21.44,22.29,23.56c9.17,1.65,17.54-0.2,25.34-5.01
		c12.15-7.48,19.61-18.17,21.76-32.38c1.24-8.19-0.26-16.03-3.3-23.64c-1.22-3.06-2.54-6.09-3.85-9.12
		c-0.36-0.84-0.44-1.98-1.84-2.08c-0.4,1.31,0.5,2.25,0.96,3.26c2.18,4.74,4.3,9.51,4.96,14.74c1.44,11.36-0.05,22.26-6.52,31.91
		c-5.06,7.54-11.98,13.04-20.94,15.35c-11.37,2.93-22.63-1.99-26.94-12.02c-3.86-8.98-2.62-17.5,3.47-25.17
		c4.66-5.86,10.48-9.58,18.32-9.51c8.68,0.08,19.19,9.62,14.53,21.15c-2.24,5.53-6.18,9.4-11.71,11.31
		c-4.06,1.4-8.37,1.73-11.94-1.55c-3.62-3.32-4.89-7.62-4.12-12.33c0.8-4.94,7.56-9.07,12.43-7.85c1.74,0.43,3.27,1.31,4.18,3.03
		c-0.81,0.73-1.24-0.15-1.75-0.39c-3.42-1.61-6.65-1.52-9.65,0.92c-3.09,2.52-3.85,5.78-2.93,9.54c0.05,0.19,0.12,0.37,0.18,0.56
		c1.7,5.33,3.81,6.75,9.39,6.16c3.34-0.35,6.58-1.04,9.42-3.05c4.4-3.11,6.36-9,4.59-14.11c-2.82-8.16-12.26-12.72-20.36-9.71
		c-7.29,2.71-12.01,7.89-13.24,15.61c-1.26,7.92,1.7,14.47,7.85,19.54c2.17,1.79,4.77,2.69,7.56,2.96c3.84,0.38,7.59,0.27,11.2-1.48
		c6.12-2.98,11.44-6.86,15.1-12.73c3.59-5.76,4.97-12.13,5.04-18.83c0.03-2.55-0.02-5.14-0.65-7.62
		c-1.93-7.64-5.2-14.64-10.38-20.65c-5.22-6.06-11.17-11.27-17.82-15.75c-3.89-2.63-7.52-5.69-11.08-8.76
		c-3.03-2.62-6.56-4.59-9.35-7.48c-5.74-5.95-11.23-12.07-13.63-20.29c-1.48-5.06-2.27-10.16-1.29-15.41
		c1.13-6.04,4.22-10.67,9.72-13.66c8.74-4.76,17.91-5.09,27.47-3.28c8.12,1.54,15.91,4.28,23.92,6.16
		c6.03,1.41,12.12,2.41,18.37,2.01c1.56-0.1,2.79-0.59,3.89-1.74c6.59-6.9,14.68-11.38,23.55-14.65c9.42-3.48,19.2-5.6,28.96-7.82
		c8.33-1.9,16.64-3.9,24.18-8.13c6.81-3.82,13.15-8.29,18.07-14.44c2.52-3.16,3.98-6.75,4.92-10.82c1.99-8.58,1.92-17.1,0.57-25.65
		c-0.81-5.17-2.99-9.92-6.06-14.2c-1.09-1.52-2.42-2.05-4.33-1.39c-1.79,0.62-3.42,1.32-4.72,2.76c-1.66,1.85-3.63,3.2-6.25,3.23
		c-0.73,0.01-1.34,0.26-1.87,0.75c-3.62,3.35-8.04,5.6-11.79,8.78c-1.92,1.63-3.98,3-4.21,5.89c-0.1,1.27-1.54,2.01-3.26,1.89
		c-1.36-0.1-2.62-0.48-3.86,0.64c-0.96,0.87-1.35-0.7-2.14-0.93c-0.7-0.2-1.5-0.54-0.93-1.66c0.5-0.99-0.06-1.23-0.95-0.99
		c-0.28,0.07-0.5,0.34-0.78,0.4c-3.1,0.76-5.78-0.72-6.37-3.89c-0.56-2.96-0.78-5.98-1.59-8.9c-0.34-1.24,0.26-2.11,1.14-2.81
		c5.2-4.09,8.85-9.45,12.2-15c2-3.3,3.39-6.86,2.31-10.93c-0.37-1.4-0.4-2.92-0.39-4.39c0.01-1.92,0.53-3.54,2.51-4.55
		c2.9-1.48,4.41-4.43,6.33-6.87c0.87-1.11,1.89-2.17,2.56-3.51c0.51-1.01,0.49-1.58-0.3-2.25c-0.37-0.32-0.68-0.72-1.07-1.01
		c-1.77-1.31-2.54-3.14-2.83-5.25c-0.22-1.54-0.05-3.16-0.96-4.56c-0.1-0.15,0.04-0.63,0.21-0.73c0.19-0.11,0.65-0.06,0.78,0.09
		c0.44,0.52,0.82,1.1,1.15,1.69c1.06,1.94,2.73,3.33,4.32,4.79c0.48,0.44,1.16,0.87,1.86,0.37c0.58-0.42,0.36-1.05,0.2-1.61
		c-0.65-2.36-0.12-4.93-1.24-7.22c-0.2-0.4-0.23-1.02,0.38-1.24c0.57-0.21,1,0.13,1.12,0.64c0.9,3.48,4.14,5.15,6.05,7.85
		c1.05,1.49,2.76,1.28,4.33,1.23c4.43-0.14,8.82,0.05,13.16,1.12c4.71,1.16,8.98,3.31,13.02,5.86c9.19,5.8,15.66,14.14,21.07,23.37
		c3.95,6.75,7.46,13.73,10.69,20.87c2.06,4.57,4.4,9.02,6.35,13.65c0.45,1.07,1.08,1.09,1.91,0.16c0.99-1.11,1.67-2.43,2.37-3.72
		c5.79-10.71,11.8-21.3,18.21-31.66c6.6-10.67,15.37-18.82,27.23-23.33c6.74-2.56,13.72-3.36,20.84-2.32
		c1.7,0.25,2.85,0.21,3.58-1.5c0.35-0.82,1-1.47,1.75-1.96c1.92-1.28,3.58-2.73,4.22-5.09c0.2-0.73,0.75-1.19,1.58-0.81
		c0.66,0.31,0.71,0.91,0.43,1.5c-1.44,2.98-1.02,6.31-2.01,9.3c0.83,0.6,1.26,0.13,1.64-0.29c1.89-2.08,4.48-3.57,5.48-6.44
		c0.18-0.51,0.63-1.2,1.31-0.83c0.59,0.32,0.36,1.03,0.19,1.59c-0.5,1.69-1.04,3.38-1.5,5.08c-0.45,1.66-1.75,2.53-3,3.49
		c-2.01,1.54-2.17,2.24-0.94,4.48c1.37,2.5,2.84,4.94,4.3,7.39c0.82,1.38,2.02,2.42,3.32,3.3c2.58,1.74,3.44,4.14,2.99,7.14
		c-0.36,2.4-1.04,4.81-0.07,7.22c1.44,3.56,3.04,7.02,5.33,10.14c1.1,1.5,2.17,3.06,3.01,4.71c1.16,2.28,2.8,3.96,5.05,5.15
		c2.03,1.08,2.56,3.04,1.12,4.82c-0.95,1.18-1.35,2.34-1.23,3.77c0.01,0.1-0.02,0.2-0.02,0.29c-0.02,4.16-1.07,7.48-6.02,8.02
		c-0.63,0.07-1.59,0.01-2.1,0.8c-1.91,2.95-4.71,1.47-7.11,1.2c-1.71-0.19-3.02-1.51-3.33-3.34c-0.62-3.72-3.32-5.72-6.21-7.39
		c-3.16-1.82-6.32-3.6-8.76-6.36c-0.6-0.67-1.29-0.74-2.07-0.88c-4.92-0.92-8.81-3.67-12.24-7.13c-0.73-0.73-0.96-0.74-2.04-0.4
		c-3.69,1.16-4.97,4.3-6.35,7.19c-3.63,7.63-4.41,15.8-4.01,24.16c0.36,7.52,2.39,14.48,6.33,20.92c2.8,4.58,6.77,7.88,11.22,10.66
		c3.25,2.03,6.73,3.66,10.1,5.47c7.85,4.22,16.43,6.19,24.91,8.53c10.23,2.83,20.19,6.44,29.58,11.41
		c4.88,2.58,9.27,5.97,12.57,10.51c1.47,2.02,3.3,2.88,5.72,3.04c5.71,0.38,11.3,0,16.99-0.96c9.59-1.63,18.93-4.43,28.56-5.74
		c7.91-1.07,15.67-0.63,22.98,3.09c3.52,1.8,6.24,4.36,8.09,7.87c5.11,9.66,3.76,18.76-1.98,27.71
		c-4.49,6.99-10.61,12.27-16.94,17.43c-6.77,5.52-14.01,10.4-20.88,15.77c-7.89,6.17-14.48,13.54-19.12,22.49
		c-4.66,8.99-6.06,18.47-3.19,28.27c2.34,7.97,6.91,14.33,14.74,17.78c4.79,2.11,9.84,2.53,15.01,1.65
		c1.93-0.33,3.52-1.31,4.98-2.43c6.57-5.06,9.46-11.11,8.01-19.27c-1.25-7.04-8.3-13.48-15.31-14.69
		c-9.36-1.61-18.39,7.23-16.5,16.41c1.6,7.79,10.51,13.04,18.64,8.54c4.34-2.4,5.84-7.39,3.75-11.35c-2.03-3.85-7.01-5.36-11.58-3.5
		c-1.26,0.51-2.52,3.19-2.28,4.49c0.33,1.81,2.6,4.21,4.07,4.29c0.96,0.05,1.05-0.64,1.18-1.34c0.12-0.65,0.49-1.17,1.2-0.81
		c0.66,0.33,0.52,0.99,0.23,1.54c-1.06,2.05-4.09,2.21-5.7,0.09c-1.36-1.79-2.44-3.76-1.4-6.26c1.07-2.59,2.92-3.86,5.59-4.04
		c5.59-0.39,10.53,2.08,10.87,9.49c0.28,5.96-2.67,9.94-8.51,11.21c-4.54,0.99-8.54,0.15-12.08-2.94c-2.68-2.35-5.2-4.79-6.57-8.19
		c-3.4-8.46,2.68-18.81,11.72-19.98c5.74-0.74,10.73,0.97,15.49,4.09c4.37,2.86,7.63,6.5,9.01,11.55
		c2.18,7.96,1.02,15.51-4.06,22.04c-3.26,4.19-8.07,6.34-13.31,6.77c-13.5,1.1-23.77-4.63-30.47-16.11
		c-7.83-13.4-7.42-27.34-1.04-41.26c1.6-3.49,3.58-6.75,5.84-9.85c0.19-0.21,0.38-0.41,0.57-0.62c1.09-0.91,2.25-1.75,2.7-3.19
		c0.1-0.12,0.29-0.32,0.27-0.35c-0.18-0.24-0.42-0.18-0.64-0.03c-1.05,1.03-2.09,2.06-3.14,3.09c-0.12,0-0.19,0.06-0.19,0.18
		c-2.9,2.29-5.1,5.16-6.79,8.41c-5.73,10.99-7.79,22.63-5.6,34.83c1.37,7.63,4.37,14.64,9.58,20.56c1.11,1.26,2.3,2.44,3.67,3.39
		c8.27,5.7,17.38,8.83,27.46,7.87c11.69-1.11,19.34-7.95,24.07-18.32c3.45-7.55,2.02-14.99-1.12-22.24
		c-1.98-4.57-5.27-8.11-8.89-11.55c-4.08-3.89-7.14-8.65-7.61-14.58c-0.25-3.1-0.5-6.19,0.17-9.3c1.32-6.12,5.6-8.94,11.25-9.96
		c5.59-1.01,10.46,0.82,14.62,4.61c4.01,3.65,5.54,10.51,2.31,15.53c-3.08,4.78-13.19,6.63-17.13,1.91
		c-1.21-1.44-1.85-2.92-2.08-4.68c-0.16-1.27-0.1-2.55,0.16-3.81c0,0,0.24,0.03,0.24,0.03l0.24-0.04c-0.11,2.68,0.09,5.14,2.27,7.23
		c2.26,2.16,4.85,2.41,7.61,2.13c2.66-0.27,6.26-3.69,6.91-6.27c0.21-0.83,0.51-1.64,0.72-2.47c0.7-2.81-0.89-4.96-2.42-6.88
		c-2.65-3.34-6.28-5.13-10.6-5.22c-5.89-0.13-10.26,4.18-11.15,10.18c-0.99,6.65,1.28,12.24,4.74,17.65
		c2.64,4.12,6.05,7.64,8.78,11.67c4.12,6.09,6.65,12.69,5.36,20.18c-0.51,2.98-1.53,5.88-2.31,8.81c-0.12,0.46-0.24,0.93-0.35,1.4
		c0.93,0.72,1.74-0.15,2.56-0.02c1.16,0.93,2.45,0.61,3.73,0.36c0.33,0.35,0.59,0.81,0.99,1.04c2.62,1.48,2.73,3.71,1.92,6.23
		C461.67,304.3,461.41,304.33,461.14,304.35z M71.1,219.26c0.04-0.07,0.09-0.15,0.11-0.23c0.01-0.05-0.02-0.12-0.03-0.18
		c-0.01,0.12-0.03,0.24-0.04,0.37c0.25,0.16,0.5,0.32,0.75,0.48c0.2,0.19,0.4,0.38,0.6,0.57c0.22,0.17,0.44,0.34,0.66,0.51
		c0.44,1.07,1.23,1.85,2.04,2.63c0.38,0.54,0.59,1.27,1.45,1.53c0.05-1-0.33-1.55-1-1.95c-0.62-0.99-1.25-1.96-2.54-2.16
		c-0.02-0.43-0.24-0.6-0.66-0.5c-0.01-0.39-0.17-0.62-0.59-0.57C71.77,219.31,71.44,219.28,71.1,219.26z M281.91,113.38l-0.05,0.14
		l0.1-0.08c-0.39-0.25-0.78-0.49-1.17-0.74c-1.18-1.18-2.35-2.36-3.54-3.53c-14.75-14.53-20.9-32.2-18.75-52.68
		c0.95-9.08,4.34-17.23,10.78-24c4.18-4.39,8.86-6.81,14.96-5.1c3.2,0.9,5.53-0.24,7.52-2.61c0.63-0.75,1.36-1.42,1.97-2.19
		c0.39-0.49,1.07-0.98,0.39-1.88c-0.75,0.62-1.54,1.18-2.22,1.85c-2.9,2.86-6.26,3.85-10.25,2.77c-1.23-0.33-2.54-0.12-3.8,0.16
		c-3.77,0.83-6.9,2.76-9.53,5.54c-5.75,6.07-9.39,13.3-11.17,21.4c-1.99,9.09-1.24,18.12,0.91,27.13
		c3.27,13.67,11.08,24.31,21.65,33.17c0.21,0.18,0.53,0.23,0.79,0.34C280.87,113.73,281.35,113.72,281.91,113.38z M191.99,109.19
		c0.48-0.29,0.95-0.58,1.43-0.87c10.01-6.9,17.69-15.8,22.36-27.04c5.76-13.87,6.4-27.77-0.89-41.42
		c-2.77-5.2-5.73-10.28-10.23-14.24c-2.53-2.63-5.53-3.91-9.25-3.38c-1.44,0.21-2.94,0.28-4.39,0.14c-3.66-0.35-6.86-1.51-8.43-5.3
		c-0.14-0.34-0.15-1.27-1.28-0.99c0.41,3.08,2.25,5.44,3.91,7.87c0.3,0.45,0.86,0.34,1.34,0.41c2.65,0.37,5.22,0.23,7.81-0.59
		c2.73-0.87,5.41-0.64,7.8,1.2c0.61,0.47,1.31,0.84,1.97,1.25c2.59,2.95,4.96,6.05,7.01,9.42c7.12,11.68,8.54,24.06,4.76,37.11
		c-2.83,9.79-7.78,18.42-14.59,25.98c-2.76,3.06-5.6,6.04-8.4,9.06c-0.78,0.17-0.66,0.89-0.89,1.4l-0.15-0.01L191.99,109.19z
		 M159.22,36.54c-1.2,0.05-1.79,1-2.52,1.73c-0.23,0.23-0.2,0.54,0.03,0.75c0.23,0.2,0.53,0.25,0.8,0.06
		c0.89-0.63,1.6-1.39,1.67-2.56c0.28-0.03,0.48-0.16,0.47-0.47c0-0.06-0.16-0.17-0.2-0.15C159.19,36.04,159.16,36.28,159.22,36.54z
		 M161.54,60.2c-0.25-0.13-0.55-0.25-0.74,0.02c-0.2,0.28,0.03,0.49,0.27,0.63c0.37,0.43,0.7,0.9,1.12,1.3
		c0.62,0.59,1.17,1.29,2.12,1.38c0.64,0.06,1.18-0.18,1.39-0.78c0.21-0.61-0.36-0.79-0.76-0.99
		C163.81,61.21,162.67,60.71,161.54,60.2z M22.57,180.81c0.13,0.53,0.68,1.06,0.95,0.9c0.52-0.32,0.04-0.82-0.22-1.21
		c-0.05-0.08-0.15-0.12-0.22-0.18c-0.6-1.23-1.2-2.46-1.79-3.7c-2.77-5.78-1.17-12.11,4.02-15.84c0.36-0.26,0.92-0.45,0.55-1.1
		c-4.39,1.08-7.81,4.77-8.41,8.99C16.71,173.76,19.11,177.51,22.57,180.81z M370.97,211.48c2.94-2.92,5.55-6.12,7.15-9.95
		c2.36-5.65,3.32-11.66,4.01-17.7c0.29-2.53-0.39-5.37-1.38-6.83c-0.7,0.29-0.63,0.94-0.58,1.48c0.23,2.45,0.08,4.87-0.2,7.32
		c-0.71,6.16-1.81,12.2-5,17.64c-1.49,2.53-3.04,5.03-4.57,7.54c-0.58,0.58-1.27,1.1-1.18,2.16
		C370.18,212.78,370.64,212.19,370.97,211.48z M37.55,190.44c0.2,0.13,0.54,0.41,0.59,0.37c0.36-0.33,0.14-0.59-0.19-0.8
		c-1.65-2.77-3.54-5.4-4.85-8.38c-3.08-7.01-0.41-14.19,6.51-17.5c0.71-0.34,1.81-0.28,2.02-1.67c-2.58-0.09-4.72,0.95-6.8,2.09
		c-5.07,2.8-7.09,7.1-6.06,12.79C29.79,182.98,33.18,187.05,37.55,190.44z M67.64,215.64c0.31,0.65,0.58,1.37,1.6,0.92
		c-0.4-0.6-0.68-1.35-1.64-0.85c0.44-0.74-0.24-1.05-0.61-1.41c-2.43-2.43-4.8-4.92-7.35-7.21c-3.39-3.05-6.16-6.53-8.19-10.61
		c-5.04-10.17-5.36-20.13,1.34-29.77c0.16-0.23,0.19-0.54-0.16-0.71c-8.03,4.06-11.48,12.13-8.84,21.33
		C47.52,200.28,56.01,209.31,67.64,215.64z M316.69,164.12c0.01,0,0.01,0,0.02,0c0.1-6.09,0.22-12.18,0.31-18.27
		c0.04-2.95-0.09-5.9,0.08-8.84c0.12-2.13-0.78-3.24-2.68-3.9c-1.9-0.67-3.78-1.38-5.66-2.1c-4.73-1.81-9.54-3.35-14.21-5.36
		c-8.68-3.73-17.16-7.67-24.86-13.34c-8.36-6.15-16.09-12.89-22.74-20.85c-2.96-3.54-5.78-7.19-8.74-10.73
		c-1.76-2.11-2.28-2.06-4.09-0.05c-1.18,1.31-1.85,2.99-3.16,4.22c-4.98,4.66-9.18,10.08-14.57,14.37c-3.4,2.71-6.67,5.6-10.11,8.26
		c-5.46,4.22-11.42,7.65-17.6,10.68c-9.02,4.42-18.28,8.21-28.16,10.33c-3.23,0.69-3.27,0.68-3.31,3.97
		c-0.22,15.52-0.5,31.04-0.61,46.56c-0.07,9.42-0.55,18.83,1.16,28.22c1.36,7.41,2.95,14.7,5.75,21.71
		c5.92,14.8,14.28,28.16,23.79,40.88c5.42,7.25,11.41,14.01,17.4,20.78c7.56,8.55,15.57,16.65,24,24.33
		c2.4,2.19,2.76,2.18,5.21,0.24c5.6-4.43,10.96-9.15,16.28-13.91c4.32-3.86,8.46-7.92,12.52-12.07
		c10.99-11.24,21.46-22.9,30.46-35.83c3.48-5,6.6-10.23,9.74-15.45c8.77-14.58,13.16-30.35,13.42-47.32
		C316.46,181.8,316.57,172.96,316.69,164.12z M94.55,247.86c0.22,0.09,0.43,0.19,0.65,0.28c0.81-2.37,2.9-3.43,4.61-4.85
		c3.26-2.7,6.02-5.89,9.02-8.83c2.15-2.11,3.87-4.69,5.32-7.36c1.04-1.91,0.67-3-1.11-4.27c-0.96-0.68-1.96-1.32-3.01-1.85
		c-7.11-3.57-13.1-8.57-18.65-14.19c-8.12-8.23-10.77-18.17-9.54-29.43c0.43-3.96,1.82-7.61,3.14-11.31c0.87-2.44,0.6-2.73-1.9-2.8
		c-3.55-0.1-7.11,0.16-10.53,0.98c-7.1,1.7-11.34,6.42-11.78,13.59c-0.16,2.66,0.15,5.29,0.69,7.9c1.5,7.24,5.36,13.18,10.09,18.68
		c6.42,7.46,12.04,15.5,16.84,24.09c2.39,4.29,4.1,8.8,4.73,13.73C93.37,244.15,94.07,245.99,94.55,247.86z M416.39,174.34
		c2.5,1,2.38,3.38,3.58,5c2.15,2.92,2.92,6.4,2.37,9.97c-0.44,2.85-0.97,5.71-2.24,8.38c-4.53,9.54-11.4,17.09-19.75,23.37
		c-2.29,1.73-4.1,3.92-6.11,5.91c-0.26,0.26-0.48,0.65,0.06,1.09c3.17-3.02,6.68-5.66,10.18-8.31c5.11-3.87,9.87-8.12,13.91-13.08
		c3.42-4.2,6.33-8.79,7.33-14.26c1.4-7.6-0.92-13.54-6.7-17.94C418.38,173.99,417.77,173.49,416.39,174.34z M427.75,170.36
		c-0.08,0.22-0.15,0.45-0.23,0.67c1.16,0.66,2.3,1.36,3.49,1.97c4.46,2.31,7.07,7.14,6.55,12.11c-0.36,3.38-1.66,6.42-3.17,9.4
		c-0.27,0.53-0.89,1.04-0.02,2.14c2.66-4.11,5.33-7.9,6.37-12.57c0.08-0.37-0.04-0.78-0.03-1.16c0.11-3.11-1.32-5.76-3.16-7.96
		C435.06,172,431.7,170.34,427.75,170.36z M88.31,172.73c-1.09,4.39-1.46,8.76-1.02,13.19c0.87,8.9,4.13,16.52,11.74,21.79
		c0.32,0.22,0.6,0.8,1.13,0.23C90.55,198.09,88.41,185.78,88.31,172.73z M442.39,194.47c0.32,0.05,0.56,0.18,0.66,0.1
		c3.88-2.98,7.12-6.51,8.65-11.25c2.05-6.34-0.26-12.06-5.86-15.02c-0.69-0.36-1.36-0.68-2.06-0.09c0.01,0.55,0.44,0.68,0.72,0.93
		c3.07,2.71,5.13,5.94,4.96,10.2c-0.19,4.95-2.38,9.1-5.39,12.88C443.51,192.95,442.63,193.45,442.39,194.47z M317.64,27
		c-0.27,0.19-0.54,0.38-0.82,0.56c1.03,1.72,1.95,3.52,3.1,5.16c2.24,3.19,3.77,6.61,4.07,10.53c0.07,0.88,0.21,1.77,0.69,2.53
		c1.56,2.5,2.71,5.2,3.91,7.88c0.52,1.18,1.34,2.16,3.02,2.85c-0.6-1.61-0.87-2.88-1.5-3.93c-2.33-3.86-2.99-8.13-3.84-12.47
		C325.2,34.67,321.42,30.75,317.64,27z M157.89,24.54c-0.2-0.12-0.39-0.23-0.59-0.35c-1.07,1.09-2.08,2.27-3.23,3.26
		c-2.26,1.96-3.46,4.39-3.89,7.33c-0.48,3.29-0.99,6.57-2.03,9.75c-0.46,1.42-1.52,2.63-1.72,4.18c1.04,0.2,1.26-0.46,1.5-0.92
		c1.78-3.48,3.29-7.06,3.94-10.96c0.37-2.23,1.14-4.27,2.56-6.14C155.85,28.83,157.11,26.78,157.89,24.54z M337.62,78.84
		c0.15-0.97-0.72-1.43-1.22-1.83c-2.07-1.68-1.83-3.67-1.21-5.86c0.39-1.39,1.32-1.56,2.5-1.33c1.14,0.23,1.68,0.88,1.48,2.1
		c-0.13,0.78-0.63,1.62,0.37,2.67c0.77-1.55,1.01-2.92,0.91-4.37c-0.03-0.5-0.16-1.05-0.74-1.13c-1.45-0.21-2.86-0.72-4.36-0.58
		c-0.78,0.07-1.28,0.43-1.48,1.19c-0.42,1.61-0.94,3.21-0.96,4.89C332.88,77.11,334.81,78.81,337.62,78.84z M295.78,45.52
		c-1.87,2.07-3.78,4.09-4.53,6.88c-0.41,1.53-0.62,3.08-0.4,4.64c0.13,0.9,0.49,1.81,1.67,1.61c1.15-0.2,1.38-1.12,1.01-2.03
		c-1.09-2.67,0.17-4.97,0.99-7.35C294.94,48.03,295.83,46.95,295.78,45.52z M142.18,68.64c-0.26-0.99-0.52-2.45-1.03-3.82
		c-0.34-0.9-1.03-1.92-2.2-1.46c-1.19,0.47-3.01,0.08-3.38,1.85c-0.2,0.94-0.88,2.48,0.28,2.84c1.21,0.38,0.8-1.19,1.07-1.93
		c0.38-1.05,1.49-1.5,1.99-0.76c0.88,1.32,1.38,2.8,1.31,4.44c-0.05,1.23-1.03,1.55-1.89,2.01c-0.25,0.13-0.5,0.3-0.71,0.49
		c-0.25,0.22-0.22,0.54-0.06,0.78c0.09,0.13,0.34,0.22,0.51,0.21C140.16,73.24,142.21,71.14,142.18,68.64z M180.17,43
		c0.5,1.68,0.92,3.18,1.55,4.66c0.7,1.64,0.51,3.47,0.56,5.23c0.02,0.75-0.22,1.61,1.02,1.7c1.17,0.09,1.54-0.62,1.78-1.54
		c0.24-0.88,0.32-1.8,0-2.62c-0.78-1.99-1.18-4.17-2.69-5.82C181.82,44.03,181.72,42.91,180.17,43z M320.25,59.47
		c-3.8-3.89-5.64-8.75-9.71-11.82c0.59,2.23,1.65,4.15,3.27,5.73c1.15,1.12,1.96,2.44,2.51,3.93
		C317.19,59.63,317.18,59.63,320.25,59.47z M122.11,240.76c2.85-4.17,4.17-8.37,3.89-13.09c-1.85,3.19-2.24,6.93-3.85,10.2
		c-0.25,0.52-0.38,1.1-0.48,1.68C121.63,239.78,121.84,240.05,122.11,240.76z M345.7,243.61c0.43-1.22-1.02-10.88-1.92-13.13
		C342.63,235.56,344.34,239.56,345.7,243.61z M160.5,48.11c0.24,0.22,0.49,0.44,0.73,0.66c1.38-2.66,4.82-3.86,4.69-7.61
		C164.12,43.47,162.31,45.79,160.5,48.11z M315.37,37.06c-2.23-0.44-3.13,0.18-4.49,2.96C313.02,39.84,313.71,37.69,315.37,37.06z
		 M163.75,33.38c-0.98-1.09-1.91-1.96-3.3-1.12c-1.42,0.85-0.75,1.99-0.53,3.2C160.66,33.59,162.21,33.61,163.75,33.38z
		 M159.03,50.47c-1.03,0.81-2.41,0.95-2.32,2.46c0.03,0.41,0.62,0.69,0.89,0.59C158.77,53.07,159.46,52.25,159.03,50.47z
		 M442.58,194.86c-0.13-0.1-0.29-0.32-0.38-0.29c-0.55,0.18-0.99,0.51-1.01,1.15c0,0.12,0.26,0.36,0.32,0.34
		C442.07,195.84,442.45,195.46,442.58,194.86z M160.69,49.04c-0.06-0.03-0.15-0.11-0.19-0.09c-0.08,0.04-0.21,0.16-0.19,0.19
		c0.11,0.25,0.26,0.28,0.38,0.1C160.72,49.2,160.69,49.11,160.69,49.04z M70.28,217.83l0.12-0.19l-0.21-0.02L70.28,217.83z"/>
	<path class="st0" d="M459.41,335.97c-2.4,2.81-5.54,3.91-9.14,3.83c-3.3-0.07-6.69-2.85-7.52-6.05c-0.48-1.84,0.49-4.66,1.89-5.54
		c1.25-0.79,4.28-0.59,5.65,0.37c0.97,0.68,1.38,2.49,0.75,3.42c-0.25,0.37-0.65,0.4-1.05,0.33c-0.54-0.09-0.51-0.5-0.44-0.9
		c0.42-2.25,0.22-2.85-1.04-3.07c-1.49-0.26-2.66,0.65-3.09,2.4c-0.78,3.22,0.21,6.35,2.8,7.31c2.26,0.84,4.77,1.32,7.11-0.04
		c1.26-0.73,2.44-1.61,3.65-2.42C459.12,335.75,459.26,335.87,459.41,335.97z"/>
	<path class="st0" d="M85.55,319.84c-1.44-0.73-2.98-0.96-4.58-0.82c-2.18,0.19-3.63,1.36-4.37,3.39c-0.61,1.65,0.07,3.47,1.6,4.28
		c0.96,0.51,1.94,0.76,2.04-0.87c0.03-0.51,0.1-0.99,0.7-1.12c0.42-0.09,0.81,0.1,1,0.44c0.31,0.55,0.24,1.12-0.17,1.64
		c-0.73,0.94-1.68,1.32-2.85,1.15c-1.93-0.29-3.68-2.21-3.84-4.18c-0.42-5.19,3.11-7.97,8-6.3c0.93,0.32,1.86,0.65,2.49,1.48
		C85.57,319.23,85.56,319.53,85.55,319.84z"/>
	<path class="st0" d="M184.17,324.95c0.36-0.05,0.72-0.1,1.08-0.15c1.34,1.93,2.37,4.07,3.96,5.84c1.26,1.4,2.62,2.64,4.42,3.34
		c1.3,0.51,2.53,1.07,3.91,0.17c0.82-0.54,1.6-0.26,1.82,0.7c0.23,1.02-0.55,1.36-1.41,1.44c-1.41,0.14-2.75-0.19-3.99-0.82
		C189.4,333.16,186.04,329.74,184.17,324.95z"/>
	<path class="st0" d="M73.67,334.05c0.08-0.27,0.16-0.53,0.24-0.8c2.35,0.38,4.71,0.34,6.98-0.28c5.59-1.52,8.35-8.58,5.2-12.9
		c0.11-0.09,0.22-0.19,0.32-0.28c2.29,3.07,2.21,7.34-0.2,10.53C83.34,334.12,78.21,335.65,73.67,334.05z"/>
	<path class="st0" d="M351.76,306.52c0.01,0.42,0.02,0.84,0.03,1.26c-2.63,1.37-4.91,0.73-6.87-1.3c-1.89-1.97-2.6-4.29-1.9-7
		c0.35-1.36,1.32-1.86,2.55-2.05c0.54-0.08,0.97,0.19,1.1,0.73c0.13,0.56-0.17,0.82-0.71,1.03c-2.08,0.83-2.48,1.61-2.01,3.63
		c0.47,2.02,2.22,3.62,4.31,3.78C349.42,306.69,350.6,306.56,351.76,306.52z"/>
	<path class="st0" d="M443.18,238.26l-0.24,0.04c0,0-0.24-0.03-0.24-0.03c0.46-2.73,2.12-4.32,4.76-4.91
		c2.61-0.59,4.51,0.64,6.24,2.42c0.93,0.96,1.01,2.07,0.82,3.27c-0.14,0.87-0.68,1.11-1.5,0.83c-0.72-0.25-1.28-0.54-0.73-1.46
		c0.34-0.56,0.81-1.1,0.73-1.9c-0.12-0.1-0.25-0.24-0.42-0.33C446.91,232.74,445.87,234.97,443.18,238.26z"/>
	<path class="st0" d="M277.69,330.04c-2.52,3.73-5.77,6.3-10.46,6.58c-0.58,0.04-1.19,0.08-1.74-0.07
		c-0.83-0.22-1.43-0.84-1.14-1.73c0.34-1.03,1.32-0.9,1.92-0.41c1.11,0.9,2.29,1.1,3.56,0.72c1.99-0.6,3.74-1.65,5.07-3.29
		c0.79-0.98,1.52-2.02,2.61-2.72C277.57,329.42,277.63,329.73,277.69,330.04z"/>
	<path class="st0" d="M461.14,304.35c0.27-0.02,0.53-0.05,0.8-0.07c-0.21,2.99-2.85,4-4.67,5.66c-0.55,0.5-1.29,0.42-1.92-0.01
		c-0.53-0.37-0.79-0.91-0.6-1.53c0.24-0.78,0.91-1.04,1.63-0.95C458.87,307.77,460.18,306.35,461.14,304.35z"/>
	<path class="st0" d="M46.11,274.24c-1.12,1.45-2.74,1.7-4.4,1.78c-0.91,0.04-1.76-0.21-2.12-1.21c-0.24-0.67-0.37-1.44,0.23-1.9
		c0.66-0.5,1.66-0.61,2.06,0.23c1.02,2.15,2.68,1.39,4.26,1.14L46.11,274.24z"/>
	<path class="st0" d="M121.09,300.83c-0.47-0.59,0.01-1.12,0.08-1.67c0.29-2.23,0.16-2.51-1.95-3.52c-0.58-0.28-1.14-0.59-0.83-1.27
		c0.39-0.84,1.11-0.64,1.73-0.23C121.94,295.37,122.39,298.5,121.09,300.83z"/>
	<path class="st0" d="M219.45,322.82c0.28-0.81-0.3-1.5-0.32-2.24c-0.03-0.87,0.64-1.13,1.4-1.03c0.75,0.1,0.91,0.66,0.75,1.29
		c-0.24,0.95-0.73,1.78-1.35,2.53C219.76,323.19,219.61,323.01,219.45,322.82z"/>
	<path class="st0" d="M459.03,297.02c-1.28,0.25-2.57,0.56-3.73-0.36C456.62,296.04,457.85,296.28,459.03,297.02z"/>
	<path class="st0" d="M48.94,270.6c-0.13-1.22,0.15-2.47-0.45-3.64c1.33,1.45,1.33,1.46,0.41,3.62L48.94,270.6z"/>
	<path class="st0" d="M48.69,272.03c-0.22,0.34-0.36,1.07-0.86,0.67c-0.42-0.33,0.15-0.71,0.48-0.97
		C48.42,271.84,48.55,271.94,48.69,272.03z"/>
	<path class="st0" d="M85.55,319.84c0.01-0.3,0.02-0.6,0.03-0.9c0.46,0.11,0.65,0.48,0.83,0.86c-0.1,0.09-0.21,0.19-0.32,0.28
		C85.9,320,85.72,319.92,85.55,319.84z"/>
	<path class="st0" d="M48.9,270.58c0.28,0.54,0.11,1.01-0.22,1.45c-0.13-0.09-0.26-0.19-0.39-0.3c0.07-0.46,0.07-0.95,0.64-1.13
		C48.94,270.6,48.9,270.58,48.9,270.58z"/>
	<path class="st0" d="M459.92,335.42c-0.17,0.19-0.35,0.37-0.52,0.56c-0.15-0.11-0.28-0.23-0.41-0.36c0.04-0.33,0.23-0.53,0.54-0.62
		C459.68,335.13,459.81,335.27,459.92,335.42z"/>
	<path class="st0" d="M277.69,330.04c-0.06-0.31-0.12-0.62-0.18-0.92c0.2-0.09,0.43-0.38,0.58,0.04
		C278.22,329.55,277.91,329.78,277.69,330.04z"/>
	<path class="st0" d="M278.97,328.1c-0.2,0.23-0.2,0.82-0.69,0.52c-0.43-0.26-0.05-0.64,0.06-0.95
		C278.55,327.81,278.76,327.96,278.97,328.1z"/>
	<path class="st0" d="M218.88,323.43c0.08-0.31,0.27-0.51,0.58-0.6c0.16,0.18,0.31,0.37,0.47,0.55c-0.13,0.16-0.26,0.32-0.4,0.48
		C219.31,323.71,219.09,323.57,218.88,323.43z"/>
	<path class="st0" d="M119.67,302.85c0.02-0.36,0.21-0.57,0.57-0.61l0.17,0.16c-0.04,0.35-0.23,0.56-0.57,0.63
		C119.84,303.02,119.67,302.85,119.67,302.85z"/>
	<path class="st0" d="M120.24,302.24c0.06-0.23,0.06-0.66,0.4-0.44c0.29,0.18,0.04,0.47-0.23,0.6
		C120.41,302.4,120.24,302.24,120.24,302.24z"/>
	<path class="st0" d="M46.14,274.27c-0.1-0.39,0.24-0.55,0.42-0.8l-0.04-0.07c0.24,0.46,0.1,0.74-0.41,0.84
		C46.11,274.24,46.14,274.27,46.14,274.27z"/>
	<path class="st0" d="M46.56,273.47c0.16-0.05,0.33-0.11,0.49-0.16c-0.03,0.11-0.07,0.22-0.1,0.33c-0.14-0.07-0.28-0.15-0.43-0.23
		C46.52,273.4,46.56,273.47,46.56,273.47z"/>
	<path class="st0" d="M284.62,315.03c-0.17,0.21-0.34,0.42-0.51,0.63c-0.26-0.21-0.52-0.43-0.78-0.64c0.21-0.17,0.42-0.35,0.63-0.52
		C284.17,314.67,284.39,314.85,284.62,315.03z"/>
	<path class="st0" d="M283.95,314.5c0.21-0.14,0.5-0.45,0.6-0.39c0.43,0.23,0.23,0.59,0.07,0.92
		C284.39,314.85,284.17,314.67,283.95,314.5z"/>
	<path class="st0" d="M160.69,49.04c0,0.07,0.03,0.16,0,0.21c-0.12,0.18-0.27,0.15-0.38-0.1c-0.01-0.03,0.11-0.16,0.19-0.19
		C160.54,48.93,160.63,49.01,160.69,49.04z"/>
	<path class="st0" d="M71.13,219.22c0.01-0.12,0.03-0.24,0.04-0.37c0.01,0.06,0.05,0.12,0.03,0.18c-0.02,0.08-0.07,0.15-0.11,0.23
		C71.09,219.27,71.13,219.22,71.13,219.22z"/>
	<path class="st0" d="M191.99,109.19l-0.1,0.01c0,0,0.15,0.01,0.16,0.01C192.05,109.21,191.99,109.19,191.99,109.19z"/>
	<polygon class="st0" points="281.96,113.44 281.86,113.52 281.91,113.38 	"/>
	<path class="st0" d="M186.23,193.56c2.84,4.44,6.47,8.29,9.59,12.55c-3.5,0.89-3.45,0.85-5.33-1.71c-2.15-2.93-4.4-5.78-6.64-8.63
		c-0.48-0.61-1.04-1.21-1.68-1.64c-1.12-0.77-1.98-0.25-1.99,1.28c-0.02,3.04,0.03,6.09,0.17,9.13c0.06,1.42-0.48,1.92-1.85,1.92
		c-1.67,0-1.82-0.06-1.76-1.82c0.13-4.22,0.49-8.44,0.39-12.66c-0.09-3.47,0.27-6.93-0.07-10.39c-0.13-1.38,0.3-1.99,1.77-1.91
		c3.23,0.19,6.47-0.3,9.7,0.29c3.22,0.58,5,2.01,5.48,4.53c0.56,2.93-0.57,5.17-3.31,6.95
		C189.36,192.32,187.69,192.37,186.23,193.56z M180.31,187.92c0.02,0,0.04,0,0.05,0c-0.04,0.69-0.11,1.37-0.1,2.06
		c0,1.94,0.29,2.28,2.18,2.25c1.66-0.02,3.32-0.14,4.91-0.79c2.38-0.98,3.69-3.2,3.39-5.88c-0.24-2.23-1.76-3.78-4.22-4.26
		c-1.36-0.26-2.73-0.21-4.11-0.17c-1.21,0.03-1.79,0.61-1.84,1.79C180.49,184.59,180.4,186.25,180.31,187.92z"/>
	<path class="st0" d="M241.26,154.47c0.81-0.78,0.48-1.83,0.49-2.76c0.03-2.55-0.06-5.11-0.08-7.66c-0.01-2.06,0.01-2.06,2.09-2.08
		c0.38,0,0.77,0.02,1.32,0.03c-0.16,5.46-0.34,10.84-0.46,16.22c-0.08,3.73-0.08,7.47-0.09,11.2c0,1-0.18,1.72-1.42,1.72
		c-0.92,0-1.54-0.12-1.46-1.26c0.04-0.54,0.33-1.14-0.31-1.76c-1.77,2.34-4.06,3.59-7.08,3.29c-2.85-0.28-5.15-1.4-6.24-4.17
		c-1.58-4.03-1.94-8.06,0.92-11.72c2.86-3.66,7.11-4.28,10.99-1.73C240.36,154.06,240.68,154.48,241.26,154.47z M230.3,163.83
		c-0.14,0.96,0.26,2.36,0.97,3.67c1.51,2.81,4.97,3.57,7.52,1.64c0.95-0.72,1.71-1.63,2.14-2.74c1.11-2.92,1.29-5.91,0.27-8.88
		c-0.74-2.13-2.27-3.39-4.56-3.53c-2.37-0.15-4.16,0.79-5.22,3C230.45,158.99,230.3,161.11,230.3,163.83z"/>
	<path class="st0" d="M216.62,204.44c-2.08,2.76-4.8,2.92-7.9,2.15c-3.41-0.85-4.66-3.4-5.33-6.37c-0.67-2.97-0.08-5.95,1.18-8.62
		c1.9-4.03,7.97-4.62,11.01-2.43c0.7,0.51,1.17,1.35,2.26,1.51c0.7-1.68,0.26-3.46,0.31-5.18c0.07-2.06-0.03-4.12-0.09-6.18
		c-0.04-1.09,0.03-1.93,1.51-1.87c1.33,0.05,1.89,0.41,1.83,1.89c-0.27,6.47-0.43,12.95-0.61,19.43c-0.06,2.16-0.06,4.32-0.04,6.48
		c0.01,0.92-0.22,1.48-1.29,1.51c-0.99,0.03-1.5-0.28-1.42-1.32c0.09-1.21-0.3-1.69-1.48-0.96c-0.97-0.51-0.1-0.97,0.11-1.31
		c1.79-2.86,1.71-5.98,1.17-9.09c-0.43-2.53-2.38-4.2-4.78-4.52c-2.57-0.35-4.34,0.63-5.6,3.28c-1.35,2.86-1.48,5.87-0.56,8.86
		c1.21,3.94,4.47,5.13,8.08,3.12C215.47,204.56,215.86,203.54,216.62,204.44z"/>
	<path class="st0" d="M252.03,189.16c-2.51,2.13-4.78,4.13-7.13,6.01c-1.22,0.98-1.23,1.8-0.21,2.91c2.12,2.31,4.18,4.68,6.25,7.03
		c0.44,0.49,1.15,0.8,1.11,1.83c-2.1,0.58-3.84,0.34-5.28-1.65c-1.54-2.12-3.31-4.06-4.95-6.12c-0.38-0.48-0.72-0.99-1.39-0.86
		c-0.81,0.16-0.61,0.87-0.62,1.42c-0.04,1.96-0.13,3.92-0.04,5.88c0.06,1.27-0.55,1.46-1.58,1.51c-1.13,0.06-1.61-0.35-1.57-1.51
		c0.12-3.14,0.23-6.27,0.26-9.41c0.06-5.49,0.05-10.99,0.06-16.48c0-1-0.16-1.98,1.39-1.96c1.62,0.02,1.84,0.13,1.79,1.82
		c-0.12,4.41-0.25,8.82-0.38,13.23c-0.02,0.59-0.04,1.18,0,1.77c0.05,0.64-0.26,1.46,0.6,1.77c0.76,0.27,1.31-0.31,1.8-0.76
		c1.88-1.72,3.81-3.4,5.56-5.25C248.85,189.17,250,188.58,252.03,189.16z"/>
	<path class="st0" d="M168.85,143.93c0.52-0.13,0.79-0.24,1.08-0.27c2.68-0.22,2.69-0.22,3.46,2.3c1.86,6.12,4.4,11.98,6.67,17.95
		c0.24,0.64,0.45,1.31,1.16,1.72c1.11-0.48,1.26-1.64,1.67-2.58c2.48-5.67,4.89-11.36,6.94-17.2c0.55-1.58,1.34-2.32,3.03-1.73
		c0.44,0.74-0.09,1.33-0.36,1.89c-3.57,7.44-6.83,15.02-9.97,22.65c-0.45,1.09-0.96,1.81-2.31,1.82c-1.41,0.01-1.5-1.06-1.84-1.92
		c-3.11-7.75-6.19-15.5-9.26-23.26C168.98,144.96,168.97,144.55,168.85,143.93z"/>
	<path class="st0" d="M208.41,152.61c3.42-0.09,3.42-0.09,3.9,1.99c1.3-0.88,2.37-2,3.96-2.35c4.8-1.04,8.47,1.74,8.46,6.65
		c-0.01,3.44-0.16,6.87-0.28,10.31c-0.05,1.49-0.57,1.9-1.98,1.81c-1.38-0.09-1.21-1.02-1.1-1.91c0.37-2.84,0.22-5.69,0.28-8.53
		c0.02-0.88-0.01-1.77-0.16-2.64c-0.39-2.25-1.62-3.52-3.53-3.78c-2.32-0.32-4.23,0.54-5.27,2.42c-0.63,1.15-0.83,2.4-0.83,3.7
		c0.01,2.85-0.03,5.7,0.04,8.54c0.03,1.27-0.14,2.04-1.69,2.04c-1.52,0-1.47-0.85-1.44-1.92c0.1-3.63,0.19-7.27,0.22-10.9
		C209.01,156.29,209.14,154.53,208.41,152.61z"/>
	<path class="st0" d="M260.66,188.65c4.63-0.53,9.89,2.79,9.99,8.71c0.1,6.18-3.03,10.01-8.74,10.23
		c-6.25,0.24-10.09-3.01-10.27-8.67C251.43,192.61,254.72,188.87,260.66,188.65z M267.3,197.03c-0.08-0.62-0.14-1.61-0.37-2.56
		c-0.68-2.84-2.68-4.57-5.31-4.68c-3.05-0.13-5.12,1.15-6.09,4.04c-0.97,2.86-1,5.8-0.14,8.7c0.72,2.43,2.59,3.87,4.91,4.02
		c2.9,0.18,4.68-0.88,5.93-3.41C267.14,201.3,267.18,199.34,267.3,197.03z"/>
	<path class="st0" d="M263.36,168.04c0.31,1.53-0.53,1.98-1.3,2.36c-3.8,1.87-7.59,1.83-11.21-0.39c-1.92-1.18-3.04-3.03-3.39-5.28
		c-0.26-1.66-0.22-3.33,0.09-4.98c1.4-7.52,8.03-8.29,12.74-6.25c2.7,1.17,3.99,3.34,4.12,6.24c0.09,2-0.08,2.2-2.08,2.18
		c-3.23-0.02-6.47-0.11-9.7-0.09c-2.12,0.01-2.3,0.29-1.98,2.45c0.71,4.82,5.47,7.33,10.01,5.26
		C261.53,169.16,262.34,168.62,263.36,168.04z M256.13,160.53c0,0.06,0,0.13,0.01,0.19c1.27-0.05,2.54-0.08,3.81-0.14
		c0.64-0.03,1.08-0.26,1.2-1c0.31-1.99-1.01-4.6-2.8-5.41c-1.97-0.89-4.44-0.28-5.8,1.47c-0.73,0.93-1.23,2-1.55,3.14
		c-0.33,1.15-0.08,1.94,1.34,1.88C253.6,160.62,254.87,160.58,256.13,160.53z"/>
	<path class="st0" d="M205.5,167.43c0.5,0.8,0.32,1.35-0.18,1.74c-3.75,2.94-11.96,2.54-14.58-2.47c-1.9-3.64-1.26-9.82,1.72-12.64
		c2.91-2.76,6.4-2.72,9.92-1.48c2.83,1,4.27,3.45,4.38,6.69c0.05,1.37-0.32,1.99-1.78,1.94c-3.14-0.1-6.29-0.1-9.43-0.12
		c-2.52-0.02-2.72,0.21-2.46,2.64c0.46,4.32,4.59,6.88,8.91,5.53C203.23,168.89,204.25,168.09,205.5,167.43z M193.38,159.82
		c3,0.3,6.01,0.3,9.02,0.15c0.64-0.03,1.16-0.23,1.21-0.98c0.23-3.16-1.71-6.08-4.96-5.9C195.62,153.25,193.54,155.77,193.38,159.82
		z"/>
	<path class="st0" d="M279.86,192.56c-0.54-1.06-0.3-1.67,0.25-2.16c2.14-1.93,7.41-2.15,9.73-0.39c1.57,1.19,2.5,2.75,2.44,4.78
		c-0.07,2.55-0.19,5.1-0.21,7.65c-0.01,1.81-0.39,3.82,2.34,4.57c-1.81,0.84-3.29,0.9-4.29-0.35c-0.88-1.09-1.42-0.85-2.37-0.21
		c-2.04,1.38-4.27,1.98-6.7,1.08c-1.79-0.66-2.99-1.79-3.14-3.83c-0.16-2.09,0.59-3.63,2.48-4.59c1.79-0.9,3.75-1.1,5.68-1.43
		c2.81-0.48,3.17-0.76,3.26-2.52c0.12-2.3-0.87-3.91-2.92-4.55C283.92,189.83,281.83,190.72,279.86,192.56z M289.42,200.37
		c-0.14-0.69,0.61-2.09-1.01-2.05c-2.04,0.05-4.1,0.37-5.85,1.57c-1.51,1.03-2.04,2.75-1.41,4.36c0.57,1.48,2.03,2.42,3.75,2.13
		C288.13,205.82,289.57,204.86,289.42,200.37z"/>
	<path class="st0" d="M303.71,162.41c0.18,5.82-3.23,9.53-8.94,9.72c-5.92,0.2-9.74-3.22-9.91-8.75
		c-0.23-7.33,4.26-10.04,9.04-10.26C299.04,152.88,304.06,156.96,303.71,162.41z M300.55,162.32c-0.09-1.37-0.15-2.74-0.63-4.04
		c-0.99-2.66-2.83-3.98-5.53-3.94c-2.97,0.04-4.78,1.32-5.66,4.15c-0.77,2.47-0.85,5.02-0.37,7.55c0.59,3.09,2.56,4.94,5.24,5.06
		c3.3,0.15,5.41-1.29,6.43-4.42C300.5,165.26,300.58,163.8,300.55,162.32z"/>
	<path class="st0" d="M232.91,192.02c-1.19-1.24-1.96-2.63-3.77-2.39c-1.62,0.21-2.94,1.11-3.3,2.5c-0.37,1.45,0.28,2.73,1.96,3.51
		c1.33,0.62,2.78,0.98,4.1,1.61c3.27,1.57,3.88,5.06,1.44,7.77c-1.54,1.71-3.43,2.57-5.77,2.34c-0.78-0.08-1.56-0.19-2.34-0.26
		c-2.81-0.26-3-0.64-1.56-3.57c0.66,0.58,1.24,1.2,1.92,1.68c1.33,0.94,3.72,1.05,4.77,0.31c2.41-1.71,2.23-4.27-0.47-5.63
		c-1.04-0.53-2.22-0.78-3.3-1.25c-3.08-1.33-4.05-3.39-3.21-6.67c0.58-2.25,3.59-4.14,6.18-3.83c0.67,0.08,1.32,0.32,1.98,0.47
		C233.97,189.16,233.98,189.16,232.91,192.02z"/>
	<path class="st0" d="M281.38,156.3c-0.79-0.65-1.34-1.25-2.01-1.62c-1.63-0.92-3.84-0.31-4.65,1.19c-0.88,1.63-0.28,3.45,1.62,4.39
		c1.13,0.56,2.39,0.89,3.58,1.35c1.94,0.76,3.39,1.89,3.61,4.19c0.22,2.26-0.91,3.78-2.58,4.95c-2.67,1.86-5.63,1.53-8.49,0.63
		c-1.87-0.59-0.57-1.85-0.49-2.84c1.17-0.21,1.52,0.68,2.1,1.11c1.29,0.95,2.7,1.16,4.19,0.76c1.33-0.36,2.24-1.22,2.45-2.64
		c0.21-1.46-0.5-2.5-1.76-3.08c-1.15-0.53-2.39-0.87-3.59-1.31c-2.91-1.07-4.18-2.92-3.79-5.51c0.42-2.77,2.55-4.75,5.34-5
		c1.19-0.11,2.36-0.05,3.5,0.28C282.25,153.68,282.27,153.76,281.38,156.3z"/>
	<path class="st0" d="M275.11,192.72c0.15,4.31,0.24,8.62,0.49,12.92c0.09,1.61-0.7,1.69-1.92,1.78c-1.52,0.11-1.54-0.72-1.48-1.82
		c0.53-8.52,0.53-17.04,0.21-25.56c-0.07-1.82,0.18-1.91,2.02-1.91c1.26,0,1.45,0.61,1.39,1.65
		C275.61,184.08,275.39,188.39,275.11,192.72z"/>
	<path class="st0" d="M269.11,156.5c0.15,4.32,0.25,8.64,0.49,12.95c0.1,1.79-0.22,1.9-2.03,1.95c-1.06,0.03-1.34-0.54-1.29-1.48
		c0.47-8.74,0.56-17.48,0.23-26.22c-0.06-1.55,0.92-1.39,1.92-1.47c1.25-0.1,1.48,0.51,1.44,1.58c-0.17,4.22-0.29,8.44-0.44,12.67
		C269.33,156.49,269.22,156.49,269.11,156.5z"/>
	<path class="st0" d="M276,234.18c-3.68,2.49-7.39,0.89-7.79-3.45c-0.15-1.58-0.49-3.29,0.7-4.7c2.36-2.8,3.94-3.07,8.05-1.22
		c0.48-1.74,0.13-3.48,0.31-5.15c0.1-0.91-0.7-2.51,1.07-2.49c1.82,0.01,0.96,1.6,0.96,2.48c-0.03,4.41-0.16,8.83-0.31,13.24
		c-0.03,0.79,0.48,1.9-0.74,2.26c-1.33,0.39-0.66-1.52-1.67-1.58l0.04,0.05c-0.39-0.75,0.24-1.28,0.41-1.91
		c0.44-1.64,0.56-3.28-0.11-4.9c-0.53-1.29-1.46-2.08-2.89-2.12c-1.38-0.04-2.43,0.55-3.11,1.81c-0.67,1.26-0.81,2.61-0.72,3.99
		c0.22,3.34,1.68,4.42,4.98,3.76c0.28-0.06,0.57-0.02,0.86-0.03L276,234.18z"/>
	<path class="st0" d="M242.41,247.9c-4.3,1.47-5.65,3.32-5.81,7.78c0.99,0.31,1.52-0.65,2.32-0.87c2.3-0.62,4.82,0.36,5.76,2.36
		c0.92,1.97,0.15,4.77-1.66,6.06c-3.19,2.26-7.48,0.79-8.33-3.03c-0.77-3.46-0.27-6.84,1.68-9.88
		C237.74,248.18,239.78,247.57,242.41,247.9z M236.34,259.75c0.1,0.4,0.19,0.87,0.34,1.33c0.57,1.76,1.61,2.59,3.12,2.54
		c1.51-0.06,2.52-0.99,2.98-2.71c0.25-0.96,0.27-1.93,0.05-2.88c-0.24-1.05-0.51-2.18-1.69-2.52c-1.38-0.39-2.7-0.08-3.8,0.9
		C236.35,257.28,236.66,258.55,236.34,259.75z"/>
	<path class="st0" d="M201.37,188.12c-0.23,5.9-0.64,11.57-0.23,17.24c0.11,1.58-0.93,1.38-1.89,1.46c-1.21,0.09-1.5-0.49-1.4-1.6
		c0.38-4.6,0.29-9.21,0.26-13.82C198.09,188.39,197.46,188.47,201.37,188.12z"/>
	<path class="st0" d="M229.04,256.51c-2.1,1.27-4.19,1.24-5.87-0.09c-1.29-1.01-1.81-3.18-1.18-5.11c0.66-2.03,1.98-3.32,4.19-3.54
		c3.53-0.36,5.92,1.44,6.26,4.97c0.38,4.03-0.15,7.81-3.75,10.44c-0.31-0.07-0.63-0.14-0.94-0.21c1.48-1.59,2.42-3.45,2.67-5.6
		c0.15-1.28-0.63-1.11-1.43-0.78c0.43-0.85,0.9-1.69,1.29-2.56c0.59-1.33,0.52-2.68-0.17-3.95c-1.04-1.91-3.43-2.29-4.97-0.82
		c-1.3,1.24-1.73,3.95-0.93,5.76c0.82,1.86,2.37,1.73,3.98,1.51C228.46,256.48,228.75,256.51,229.04,256.51z"/>
	<path class="st0" d="M252.22,247.64c0.88-0.03,1.76-0.08,2.65-0.09c0.56-0.01,0.94,0.24,0.92,0.86c-0.02,0.46-0.35,0.7-0.77,0.72
		c-1.27,0.08-2.55,0.1-3.82,0.18c-0.75,0.04-1.73-0.17-1.96,0.85c-0.29,1.33-0.56,2.77,0.06,4.02c0.38,0.76,1.45,0.34,2.2,0.33
		c2.1-0.03,3.62,0.83,4.41,2.78c0.78,1.94,0.22,3.66-1.08,5.18c-1.7,1.99-5.14,2.75-7.59,1.73c-0.61-0.25-1.08-0.63-0.82-1.31
		c0.25-0.65,0.78-0.34,1.21-0.14c0.36,0.17,0.69,0.4,1.06,0.5c1.49,0.37,2.94,0.41,4.09-0.83c1.14-1.24,1.37-3.46,0.59-4.98
		c-0.8-1.56-2.16-1.99-3.72-1.67c-1.64,0.34-1.82-0.48-1.77-1.76c0.05-1.37,0.09-2.75-0.02-4.12c-0.11-1.52,0.49-2.19,1.99-2.14
		c0.78,0.02,1.57-0.05,2.35-0.07C252.22,247.66,252.22,247.65,252.22,247.64z"/>
	<path class="st0" d="M266.71,234.83c-0.52,0.28-1.02,0.36-1.26,0.11c-1.05-1.12-2.06-0.67-3.11-0.04
		c-0.71,0.43-1.51,0.45-2.29,0.35c-1.36-0.17-2.43-0.74-2.65-2.29c-0.2-1.44,0.46-2.78,1.89-3.28c1.1-0.38,2.28-0.53,3.44-0.76
		c1.11-0.22,1.81-0.78,1.62-2.01c-0.18-1.11-0.57-2.06-1.87-2.34c-1.41-0.29-2.61,0.33-3.93,1.01c0.02-1.16,0.42-1.75,1.25-1.95
		c3.55-0.87,6.86,0.68,6.47,4.73C266.06,230.54,265.54,232.78,266.71,234.83z M264.46,230.59c0.01-0.26,0.06-1.05-1.02-1.24
		c-1.07-0.18-3.34,0.74-3.87,1.63c-0.56,0.93-0.49,1.88,0.14,2.72c0.59,0.79,1.41,0.9,2.34,0.62
		C263.65,233.85,264.37,232.93,264.46,230.59z"/>
	<path class="st0" d="M201,232.56c-0.7,2.54-2.62,2.48-4.6,2.3c-2.24-0.2-4-1.2-4.69-3.39c-0.76-2.43-0.53-4.79,1.02-6.98
		c1.38-1.95,3.33-1.81,5.27-1.62c1.81,0.17,3.04,1.27,3.71,2.94c0.83,2.08,0.33,2.83-1.9,2.93c-1.47,0.06-2.94,0-4.4,0.11
		c-1.75,0.13-2.17,0.9-1.51,2.55c0.79,1.98,3.01,2.98,5.09,2.22C199.69,233.36,200.33,232.91,201,232.56z M197.36,227.91
		c0.91-0.23,2.28,0.4,2.52-1.2c0.22-1.4-1.08-2.83-2.59-2.94c-1.01-0.08-1.95,0.14-2.6,0.98c-0.53,0.69-1.11,1.48-0.83,2.37
		c0.3,0.96,1.32,0.5,2.01,0.66C196.35,227.88,196.84,227.87,197.36,227.91z"/>
	<path class="st0" d="M247.89,234.2c-1.63,1.51-3.62,1.43-5.54,0.99c-2.12-0.49-3.77-1.77-4.2-4.04c-0.47-2.48-0.24-4.93,1.58-6.85
		c1.35-1.43,3.85-1.41,5.85-0.23c-0.67,0.06-1.35,0.08-2.02,0.17c-1.5,0.22-2.7,1.32-3.04,2.77c-0.11,0.47-0.19,0.96,0.44,1.2
		c0.87,0.35,5.14,0.09,5.43-0.42c0.8-1.41-0.64-2.3-0.88-3.48c-0.02-0.09,0.02-0.19,0.04-0.29c1.59-0.05,2.17,1.14,2.71,2.28
		c0.98,2.07,0.5,2.87-1.77,2.93c-1.47,0.04-2.93-0.11-4.4-0.08c-1.69,0.02-2.05,0.55-1.66,2.17c0.39,1.59,1.63,2.68,3.31,2.86
		c1.29,0.14,2.53-0.13,3.74-0.57C247.61,233.81,247.75,234,247.89,234.2z"/>
	<path class="st0" d="M219.43,247.43c0.06,5.09,0.12,9.87,0.18,14.65c0,0.2,0,0.39,0.01,0.59c0.04,1.03-0.53,1.37-1.47,1.33
		c-0.94-0.04-1.08-0.63-1.04-1.4c0.12-2.45,0.23-4.89,0.31-7.34c0.07-1.92,0.1-3.85,0.15-5.7c-1.33-0.31-2.1,1.05-3.75,0.35
		C215.9,248.98,217.59,248.24,219.43,247.43z"/>
	<path class="st0" d="M225.29,234.19c-1.1-0.31-2.2-0.45-3.36,0.26c-0.44-1.39-0.15-2.54-0.17-3.68c-0.08-3.75,0.91-7.53-0.38-11.26
		c-0.21-0.61,0.29-1.47,0.46-2.22c0.19-0.78,0.82-0.72,1.39-0.68c0.62,0.04,0.73,0.54,0.72,1.05c-0.07,2.04-0.12,4.09-0.24,6.13
		c-0.06,1.03,0.55,1.05,1.27,1.04l-0.05-0.05c-2.09,3.7-1.99,6.5,0.34,9.48L225.29,234.19z"/>
	<path class="st0" d="M209.12,223.88c-3.02,0.75-3.01,0.75-3.1,3.11c-0.05,1.27-0.11,2.54-0.17,3.81c-0.08,1.71,0.1,3.27,2.81,3.78
		c-3.77,0.27-4.55-0.37-4.48-3.14c0.04-1.76,0.23-3.52,0.26-5.28c0.01-0.69,0.36-1.63-0.86-1.84c-0.53-0.09-0.57-0.59-0.12-0.76
		c1.16-0.42,0.81-1.4,0.99-2.21c0.15-0.65,0.65-1.01,1.28-1.02c0.91-0.01,0.78,0.79,0.68,1.27
		C206.06,223.36,207.41,223.43,209.12,223.88z"/>
	<path class="st0" d="M234.91,225.71c-0.09-2.54-0.18-5.09-0.28-7.63c-0.03-0.75,0.05-1.38,1.03-1.39c1.03-0.01,1,0.69,0.98,1.41
		c-0.18,5.09-0.4,10.18-0.2,15.28c0.03,0.77-0.12,1.39-1.05,1.41c-1.02,0.02-0.99-0.72-0.96-1.43c0.08-2.55,0.16-5.09,0.24-7.64
		C234.75,225.72,234.83,225.72,234.91,225.71z"/>
	<path class="st0" d="M224.97,224.83c1.61-2.3,4.93-2.3,6.7,0.11c1.98,2.69,1.79,8.37-2.95,9.89c-1.23,0.39-2.47,0.55-3.43-0.63
		c0,0-0.04,0.06-0.04,0.06c3.91,0.03,5.35-1.24,5.62-4.99c0.3-4.14-1.99-5.87-5.95-4.49L224.97,224.83z"/>
	<path class="st0" d="M215.02,228.66c0.79-0.63,2.01-0.97,1.5-2.43c-0.47-1.33-1.3-2.2-2.78-2.18c-1.06,0.02-2.11,0.18-3.16,0.27
		c-0.47-0.6-0.02-1.01,0.38-1.13c2.06-0.65,4.07-0.34,5.92,0.7c1.06,0.6,1.69,1.61,1.65,2.92c-0.03,1.08-0.04,2.15-0.07,3.23
		c-0.04,1.52-0.45,3.09,0.88,4.34c-1.71,0.98-2.76-0.87-4.13-0.4l-0.05-0.08c0.85-1.06,1.53-2.13,1.47-3.62
		c-0.05-1.17-0.63-1.49-1.6-1.57L215.02,228.66z"/>
	<path class="st0" d="M251.11,229.81c-0.05-1.36-0.13-2.73-0.13-4.09c0-0.72-0.29-1.72,0.88-1.82c1.25-0.11,0.58,1.24,1.15,1.7
		c0.34,0.28,0.28,0.66,0.12,1.05c-0.84,2.07-0.64,4.21-0.38,6.35c0.02,0.19,0.05,0.39,0.06,0.58c0.03,0.81-0.3,1.36-1.15,1.33
		c-0.83-0.03-0.78-0.7-0.76-1.29c0.04-1.27,0.08-2.54,0.13-3.8C251.05,229.81,251.08,229.81,251.11,229.81z"/>
	<path class="st0" d="M215.22,233.98c-0.79,1.04-1.95,0.83-2.99,0.79c-1.7-0.06-2.69-0.95-2.89-2.39c-0.21-1.5,0.65-2.98,2.16-3.44
		c1.13-0.34,2.32-0.41,3.51-0.28c0,0,0.03,0.05,0.03,0.05c-0.45,0.63-1.21,0.5-1.82,0.71c-1.26,0.44-1.86,1.31-1.68,2.64
		c0.17,1.25,0.95,1.81,2.19,1.8c0.48,0,0.96,0.03,1.43,0.04L215.22,233.98z"/>
	<path class="st0" d="M199.86,183.18c-1.13,0.08-1.87-0.65-2.04-1.96c-0.16-1.18,0.41-1.74,1.51-1.84c1.21-0.11,2.29,0.63,2.39,1.62
		C201.84,182.09,200.97,183.1,199.86,183.18z"/>
	<path class="st0" d="M292.34,146.95c0.05,0.93-0.51,1.57-1.64,1.72c-1.17,0.15-1.93-0.56-2.01-1.87c-0.06-0.97,0.2-1.68,1.38-1.72
		C291.43,145.04,292.21,145.56,292.34,146.95z"/>
	<path class="st0" d="M298.35,148.54c-1.05-0.03-1.76-0.5-1.84-1.73c-0.07-1.12,0.52-1.66,1.52-1.75c1.16-0.11,2.2,0.85,2.14,1.89
		C300.13,148.04,299.44,148.46,298.35,148.54z"/>
	<path class="st0" d="M227.73,262.97c0.31,0.07,0.63,0.14,0.94,0.21c-2.47,1.57-3.67,1.61-5.85-0.02
		C224.62,263.03,226.23,263.57,227.73,262.97z"/>
	<path class="st0" d="M253.81,225.35c0.05-0.32,0.02-0.61,0.14-0.84c0.49-0.94,1.36-0.92,2.22-0.74c0.16,0.03,0.36,0.47,0.34,0.69
		c-0.14,1.15-1.11,0.79-1.8,0.93C254.43,225.44,254.15,225.37,253.81,225.35z"/>
	<path class="st0" d="M276.58,233.56c-0.19,0.21-0.39,0.42-0.58,0.62c0,0,0.05,0.04,0.05,0.04c-0.15-0.52,0.04-0.73,0.57-0.61
		L276.58,233.56z"/>
	<path class="st0" d="M247.47,233.62c0.18-0.06,0.43-0.21,0.51-0.15c0.31,0.25,0.14,0.5-0.1,0.72
		C247.75,234,247.61,233.81,247.47,233.62z"/>
</g>
</svg>
