<?xml version="1.0" encoding="utf-8"?>
<!-- Generator: Adobe Illustrator 25.1.0, SVG Export Plug-In . SVG Version: 6.00 Build 0)  -->
<svg version="1.1" id="Lager_1" xmlns="http://www.w3.org/2000/svg" xmlns:xlink="http://www.w3.org/1999/xlink" x="0px" y="0px"
	 viewBox="0 0 15.37 11.27" style="enable-background:new 0 0 15.37 11.27;" xml:space="preserve">
<g id="Svart">
	<path d="M15.29,10.09c0.02-0.12-0.04-0.18-0.15-0.2c-0.12-0.01-0.21,0.03-0.28,0.13c-0.11,0.14-0.26,0.24-0.42,0.31
		c-0.26,0.11-0.54,0.13-0.81,0.04c-0.19-0.06-0.37-0.14-0.49-0.3c-0.02-0.02-0.04-0.04-0.06-0.06c0,0-0.01,0-0.02,0
		c-0.01,0.01-0.01,0.02,0,0.04c0.08,0.11,0.17,0.22,0.28,0.31c0.08,0.06,0.17,0.11,0.27,0.14c0.27,0.09,0.55,0.11,0.83,0.05
		c0.15-0.03,0.29-0.05,0.44-0.06c0.16-0.01,0.28,0.06,0.36,0.18c0.1,0.14,0.13,0.3,0.02,0.46c0,0-0.01-0.01-0.01-0.01
		c0.01-0.03,0.03-0.07,0.04-0.1c0.02-0.07,0.01-0.14-0.03-0.21c-0.09-0.15-0.23-0.23-0.4-0.24c-0.16-0.01-0.32,0.01-0.48,0.04
		c-0.24,0.04-0.48,0.05-0.72,0.01c-0.13-0.02-0.26-0.08-0.38-0.15c-0.02-0.01-0.05-0.05-0.08-0.03c-0.03,0.02-0.01,0.05,0,0.08
		c0.02,0.13,0.02,0.27-0.01,0.4c-0.06,0.3-0.3,0.38-0.56,0.28c-0.12-0.05-0.16-0.17-0.16-0.29c0-0.1,0.05-0.17,0.15-0.21
		c0.08-0.03,0.15-0.02,0.22,0.03c0.06,0.04,0.08,0.1,0.07,0.17c-0.01,0.07-0.06,0.11-0.12,0.13c-0.04,0.02-0.11-0.01-0.14-0.05
		c-0.01-0.02-0.01-0.05,0.02-0.06c0.01-0.01,0.03-0.01,0.04-0.01c0.02,0,0.02,0.02,0.01,0.03c-0.01,0.03-0.02,0.05,0.02,0.06
		c0.03,0.01,0.06,0.01,0.09-0.03c0.02-0.03,0.02-0.06,0.02-0.09c-0.01-0.07-0.07-0.13-0.16-0.14c-0.08-0.01-0.13,0.02-0.16,0.09
		c-0.07,0.15,0.01,0.31,0.17,0.34c0.22,0.04,0.39-0.07,0.42-0.3c0.02-0.15,0.01-0.29-0.05-0.43c-0.11-0.27-0.25-0.52-0.37-0.79
		c-0.01-0.01-0.01-0.02-0.04-0.02c-0.01,0.05-0.01,0.11-0.02,0.16c-0.03,0.21-0.07,0.41-0.16,0.6c-0.09,0.19-0.24,0.32-0.42,0.42
		c-0.18,0.1-0.37,0.12-0.57,0.11c-0.01,0-0.03,0-0.04-0.01c-0.21-0.06-0.4-0.16-0.57-0.29c-0.18-0.14-0.37-0.25-0.57-0.36
		c-0.08-0.04-0.17-0.06-0.26-0.07c-0.25-0.01-0.48,0.19-0.49,0.44c-0.01,0.1-0.01,0.21,0.05,0.3c0.09,0.14,0.19,0.24,0.37,0.24
		c0.13,0,0.23-0.04,0.32-0.14c0.1-0.13,0.11-0.36,0.02-0.5c-0.03-0.04-0.07-0.07-0.12-0.08c-0.11-0.02-0.2,0.01-0.27,0.09
		c-0.08,0.09-0.11,0.18-0.07,0.3c0.04,0.11,0.2,0.16,0.29,0.1c0.02-0.02,0.03-0.03,0.01-0.06c-0.02-0.02-0.03-0.03-0.02-0.06
		c0.01-0.01,0.03-0.02,0.04-0.01c0.03,0.01,0.03,0.04,0.03,0.06c-0.01,0.07-0.1,0.14-0.18,0.13c-0.13-0.01-0.24-0.1-0.27-0.21
		c-0.04-0.14,0-0.26,0.11-0.34c0.13-0.1,0.32-0.1,0.47,0c0.13,0.09,0.17,0.25,0.12,0.41c-0.09,0.27-0.28,0.36-0.54,0.32
		c-0.27-0.04-0.44-0.26-0.42-0.53c0-0.05,0.01-0.1,0.01-0.14c-0.01,0-0.01-0.01-0.02-0.01c-0.08,0.12-0.15,0.23-0.23,0.35
		c-0.01,0-0.01-0.01-0.02-0.01c0.07-0.13,0.1-0.28,0.19-0.4c0.01-0.01,0.01-0.01,0.02-0.02c0.01-0.01,0.01-0.02,0-0.03
		c0,0-0.01,0.01-0.02,0.01c-0.01,0.01-0.01,0.01-0.02,0.02c-0.12,0.1-0.23,0.21-0.34,0.32c-0.07,0.07-0.15,0.13-0.24,0.17
		c-0.27,0.14-0.58,0.02-0.73-0.23c-0.01-0.01-0.01-0.03-0.01-0.05c0-0.03,0.01-0.04,0.04-0.04c0.02,0,0.04,0.01,0.04,0.04
		c-0.02,0.12,0.06,0.16,0.15,0.2c0.12,0.05,0.24,0.05,0.36,0.03c0.18-0.04,0.32-0.13,0.46-0.24c0.1-0.08,0.18-0.17,0.27-0.25
		c0.11-0.12,0.24-0.22,0.4-0.27c0.15-0.05,0.29-0.04,0.43,0.01c0.13,0.05,0.24,0.12,0.35,0.21c0.21,0.16,0.42,0.31,0.66,0.41
		c0.35,0.14,0.79,0.04,1.03-0.26c0.07-0.09,0.13-0.2,0.17-0.31c0.06-0.22,0.08-0.44,0.08-0.68c-0.05,0.05-0.05,0.1-0.06,0.15
		c-0.02,0.16-0.08,0.31-0.17,0.44c-0.1,0.16-0.22,0.29-0.38,0.38c-0.27,0.15-0.71,0.01-0.81-0.32c-0.07-0.22,0.02-0.46,0.23-0.56
		c0.15-0.07,0.31-0.06,0.44,0.05c0.11,0.08,0.14,0.21,0.12,0.33c-0.02,0.12-0.1,0.2-0.22,0.24c0-0.01,0-0.03,0-0.04
		c0.01-0.01,0.02-0.01,0.03-0.02c0.08-0.04,0.13-0.1,0.13-0.19c0-0.11-0.04-0.2-0.14-0.25c-0.14-0.07-0.29-0.06-0.4,0.03
		c-0.11,0.1-0.16,0.26-0.11,0.4c0.09,0.3,0.41,0.38,0.64,0.28c0.22-0.1,0.32-0.28,0.4-0.49c0.09-0.25,0.11-0.51,0.13-0.77
		c0.02-0.21,0.03-0.42,0.05-0.63c0.01-0.19,0.06-0.37,0.12-0.55c0.04-0.13,0.12-0.25,0.2-0.37c0.06-0.1,0.14-0.19,0.2-0.28
		c0.02-0.03,0.06-0.06,0.09-0.09c0.12-0.13,0.26-0.25,0.36-0.41c0.1-0.15,0.17-0.32,0.21-0.49c0.05-0.19-0.01-0.38-0.2-0.49
		c-0.17-0.1-0.35-0.15-0.54-0.17c-0.07-0.01-0.08,0.01-0.06,0.08c0.05,0.13,0.08,0.27,0.09,0.42c0,0.31-0.12,0.58-0.32,0.82
		c-0.13,0.15-0.28,0.27-0.45,0.37c-0.1,0.06-0.19,0.14-0.3,0.2c-0.05,0.02-0.04,0.07-0.03,0.11c0.02,0.07,0.06,0.14,0.11,0.19
		c0.15,0.17,0.28,0.35,0.43,0.5c0.06,0.06,0.06,0.22-0.01,0.28c-0.03,0.03-0.07,0.02-0.1,0.02c-0.13,0-0.27-0.01-0.4-0.01
		c-0.06,0-0.07,0.01-0.05,0.06c0.01,0.02,0.02,0.04,0.03,0.06c0.05,0.08,0.04,0.14-0.04,0.19C11.69,8.97,11.65,9,11.6,9.01
		c-0.37,0.14-0.73,0.32-1.1,0.46c-0.03,0.01-0.06,0.03-0.09,0.04c-0.11,0.06-0.21,0.08-0.32,0.01C10.07,9.52,10.03,9.51,10,9.5
		c-0.03-0.01-0.06-0.01-0.09,0C9.88,9.51,9.9,9.54,9.89,9.57C9.86,9.65,9.79,9.69,9.7,9.7c-0.13,0.01-0.27,0.02-0.4,0
		c-0.02,0-0.04,0-0.05-0.02c-0.01-0.02,0-0.05,0.02-0.06c0.04-0.03,0.08-0.06,0.11-0.09c0.02-0.02,0.04-0.04,0.04-0.06
		C9.42,9.37,9.49,9.35,9.55,9.34C9.62,9.32,9.7,9.31,9.77,9.28C9.8,9.27,9.83,9.27,9.86,9.27c0.19,0,0.37-0.03,0.55-0.11
		c0.15-0.07,0.32-0.12,0.47-0.2c0.07-0.04,0.14-0.08,0.21-0.12c0.05-0.03,0.07-0.07,0.07-0.13c0-0.06-0.02-0.08-0.08-0.08
		c-0.13,0-0.25,0.01-0.38,0.03c-0.05,0.01-0.09,0.01-0.13-0.01c-0.07-0.03-0.12,0.01-0.11,0.09c0,0.05-0.01,0.09-0.04,0.13
		c-0.08,0.1-0.18,0.18-0.28,0.25c-0.01,0.01-0.03,0.02-0.05,0.01c-0.01-0.04,0-0.07,0-0.11c0.02-0.09,0.04-0.17,0-0.26
		c-0.01-0.03,0-0.06,0.02-0.08c0.05-0.05,0.09-0.12,0.15-0.15c0.08-0.04,0.15-0.1,0.22-0.16c0.06-0.05,0.12-0.08,0.2-0.07
		c0.06,0.01,0.12,0,0.19,0c0.02,0,0.03,0,0.04-0.02c0.01-0.02,0-0.03-0.02-0.04c-0.06-0.05-0.12-0.11-0.17-0.16
		c-0.02-0.02-0.04-0.04-0.05-0.06c-0.05-0.1-0.11-0.2-0.17-0.3c-0.02-0.03-0.03-0.05-0.07-0.05c-0.02,0-0.04-0.01-0.06-0.02
		C10.3,7.6,10.3,7.6,10.26,7.68c-0.11,0.21-0.22,0.41-0.35,0.6C9.68,8.63,9.41,8.95,9.14,9.26c-0.29,0.33-0.6,0.64-0.94,0.93
		c-0.16,0.14-0.31,0.28-0.49,0.4c-0.04,0.03-0.07,0.03-0.11-0.01c-0.17-0.17-0.34-0.34-0.52-0.5C6.84,9.85,6.64,9.6,6.42,9.36
		C6.31,9.23,6.19,9.1,6.09,8.96C5.8,8.56,5.54,8.14,5.35,7.67C5.32,7.61,5.3,7.55,5.28,7.49C5.26,7.43,5.26,7.43,5.2,7.46
		C5.11,7.5,5.05,7.56,5,7.66C4.95,7.78,4.88,7.89,4.78,7.98C4.75,8.01,4.72,8.04,4.7,8.07C4.68,8.09,4.65,8.11,4.66,8.14
		c0.01,0.03,0.04,0.02,0.07,0.02C4.82,8.15,4.9,8.15,4.98,8.2c0.05,0.03,0.09,0.07,0.13,0.12c0.07,0.08,0.13,0.15,0.22,0.21
		c0.04,0.03,0.06,0.07,0.09,0.1c0.02,0.03,0.03,0.06,0,0.09C5.39,8.75,5.39,8.78,5.4,8.81C5.41,8.9,5.42,8.98,5.43,9.06
		c-0.03,0.02-0.06,0.01-0.07,0C5.24,8.98,5.13,8.89,5.04,8.79C4.99,8.74,4.98,8.67,4.98,8.6c0-0.08-0.02-0.1-0.09-0.08
		c-0.06,0.02-0.11,0.01-0.17,0C4.64,8.5,4.56,8.49,4.48,8.48C4.38,8.48,4.32,8.53,4.31,8.62c0,0.04,0.02,0.06,0.05,0.08
		c0.07,0.05,0.15,0.1,0.23,0.15c0.18,0.11,0.37,0.2,0.57,0.27c0.08,0.03,0.17,0.05,0.26,0.04c0.15-0.02,0.29,0.03,0.42,0.08
		C5.91,9.26,5.99,9.31,6.02,9.4C6.05,9.47,6.1,9.53,6.15,9.58C6.19,9.6,6.18,9.63,6.14,9.63C6.1,9.64,6.05,9.64,6.01,9.64
		C5.89,9.64,5.77,9.62,5.64,9.59c-0.11-0.02-0.13-0.05-0.1-0.16c0-0.01,0-0.01,0-0.02C5.46,9.39,5.38,9.4,5.31,9.44
		c-0.1,0.07-0.2,0.06-0.29-0.02c-0.1-0.08-0.22-0.13-0.33-0.18C4.37,9.12,4.07,8.96,3.76,8.82c-0.1-0.05-0.13-0.13-0.07-0.23
		c0.02-0.03,0.04-0.05,0.04-0.09C3.66,8.49,3.59,8.48,3.52,8.48c-0.05,0-0.09,0-0.14,0c-0.08,0-0.16,0-0.22-0.08
		c-0.03,0.05-0.04,0.1-0.04,0.14c0.01,0.34,0,0.67,0.04,1.01c0.02,0.23,0.08,0.44,0.22,0.63c0.18,0.25,0.56,0.26,0.78,0.01
		c0.06-0.07,0.1-0.14,0.11-0.23c0.04-0.22-0.13-0.42-0.35-0.42c-0.06,0-0.12,0.01-0.18,0.03C3.61,9.64,3.55,9.81,3.62,9.96
		c0.07,0.12,0.17,0.16,0.3,0.1c0.01-0.01,0.03-0.01,0.04-0.02c0,0,0.01,0.01,0.01,0.01c-0.08,0.12-0.32,0.08-0.4-0.06
		C3.5,9.87,3.49,9.74,3.56,9.61c0.07-0.12,0.18-0.17,0.31-0.16c0.19,0.01,0.34,0.09,0.42,0.26c0.05,0.12,0.05,0.24,0,0.35
		c-0.18,0.42-0.67,0.45-0.92,0.23c-0.12-0.11-0.21-0.23-0.27-0.38c-0.1-0.22-0.14-0.46-0.15-0.7c0-0.02,0-0.04-0.01-0.06
		c0,0-0.01-0.01-0.02-0.01C2.91,9.16,2.91,9.19,2.91,9.21C2.89,9.46,2.89,9.71,2.93,9.95c0.05,0.35,0.38,0.67,0.68,0.73
		c0.32,0.06,0.6,0,0.85-0.2c0.11-0.09,0.22-0.17,0.32-0.25c0.21-0.16,0.44-0.27,0.71-0.25c0.24,0.02,0.42,0.14,0.55,0.34
		c0.1,0.16,0.22,0.3,0.38,0.41c0.26,0.17,0.53,0.19,0.8,0.02c0.01-0.01,0.02-0.01,0.03-0.02c0.01,0,0.01,0.01,0.02,0.01
		c-0.13,0.18-0.43,0.25-0.63,0.18c-0.18-0.06-0.33-0.18-0.44-0.33c-0.04-0.06-0.08-0.12-0.14-0.18c-0.01,0.07,0.02,0.13,0.03,0.18
		c0.01,0.06,0.03,0.12,0.05,0.18c-0.01,0-0.02,0-0.04,0.01c-0.07-0.11-0.1-0.25-0.16-0.38c-0.03,0.04-0.01,0.07-0.01,0.1
		c0.01,0.13-0.01,0.25-0.06,0.37C5.81,11,5.7,11.09,5.55,11.12c-0.11,0.03-0.23,0.02-0.34-0.01c-0.2-0.05-0.32-0.24-0.29-0.45
		c0.02-0.2,0.18-0.35,0.38-0.36c0.21-0.01,0.36,0.11,0.38,0.32c0.01,0.11-0.04,0.19-0.14,0.25c-0.08,0.06-0.17,0.07-0.27,0.02
		C5.23,10.88,5.2,10.85,5.2,10.8c0-0.02,0-0.05,0.03-0.05c0.03,0,0.04,0.02,0.04,0.04c0.01,0.08,0.01,0.09,0.09,0.09
		c0.1,0,0.19-0.05,0.22-0.13c0.04-0.08,0.01-0.2-0.06-0.27c-0.14-0.15-0.41-0.09-0.48,0.1c-0.01,0.03-0.02,0.06-0.03,0.09
		c-0.03,0.24,0.06,0.4,0.33,0.43c0.29,0.03,0.52-0.15,0.54-0.42c0.01-0.17-0.05-0.32-0.18-0.44c-0.12-0.11-0.26-0.15-0.42-0.11
		c-0.19,0.04-0.36,0.15-0.52,0.26c-0.08,0.05-0.15,0.11-0.23,0.16c-0.32,0.22-0.67,0.28-1.04,0.19c-0.19-0.05-0.35-0.15-0.47-0.31
		c-0.12-0.16-0.19-0.35-0.22-0.55C2.78,9.76,2.76,9.65,2.77,9.54c0-0.04,0-0.07,0-0.1c-0.02,0-0.03,0-0.03,0.01
		C2.64,9.67,2.5,9.86,2.41,10.08c-0.06,0.13-0.11,0.26-0.14,0.41c-0.03,0.13-0.01,0.27,0.02,0.4c0.02,0.08,0.09,0.13,0.16,0.17
		c0,0.01-0.01,0.02-0.01,0.03c-0.16-0.04-0.22-0.16-0.25-0.31c-0.03-0.17-0.03-0.34,0.04-0.51c0-0.01,0-0.02,0-0.03
		c-0.02-0.02-0.04,0-0.05,0.01c-0.36,0.2-0.73,0.25-1.13,0.17c-0.15-0.03-0.29-0.07-0.44-0.08c-0.21-0.02-0.45,0.12-0.54,0.31
		c-0.06,0.14-0.02,0.27,0.12,0.35c0.08,0.04,0.16,0.06,0.24,0.05c0.12-0.02,0.18-0.08,0.16-0.21c-0.01-0.08-0.06-0.11-0.14-0.09
		c-0.01,0-0.02,0.01-0.04,0.01c-0.01,0-0.03,0-0.03-0.02c0-0.01,0-0.03,0.01-0.03c0,0,0.01,0,0.01,0c0.06-0.03,0.19,0.02,0.23,0.09
		c0.04,0.06,0.01,0.16-0.05,0.21c-0.05,0.04-0.12,0.06-0.18,0.06c-0.14,0.01-0.26-0.04-0.35-0.15c-0.09-0.1-0.08-0.23-0.02-0.35
		c0.12-0.24,0.26-0.3,0.46-0.29c0.15,0.01,0.3,0.04,0.45,0.06c0.21,0.03,0.43,0.04,0.64,0.01c0.21-0.03,0.4-0.13,0.57-0.25
		c0.11-0.08,0.21-0.18,0.28-0.29c0.01-0.02,0.03-0.03,0.03-0.06c-0.01-0.02-0.03,0-0.03,0c-0.13,0.17-0.31,0.29-0.51,0.37
		c-0.17,0.07-0.35,0.11-0.54,0.11c-0.31,0-0.56-0.13-0.79-0.32c-0.03-0.03-0.07-0.06-0.1-0.1C0.45,9.76,0.38,9.73,0.31,9.7
		C0.23,9.68,0.13,9.71,0.08,9.77C0.05,9.81,0.04,9.85,0.05,9.9c0.01,0.05,0.04,0.07,0.09,0.07c0.02,0,0.04,0.02,0.03,0.04
		c-0.01,0.02-0.03,0.03-0.05,0.02C0.07,10,0.04,9.97,0.02,9.92C0,9.85,0.01,9.78,0.03,9.72c0.02-0.06,0.05-0.09,0.12-0.1
		c0.07-0.01,0.14,0,0.19,0.03c0.01-0.01,0.02-0.02,0.02-0.03C0.3,9.52,0.29,9.41,0.29,9.3C0.27,9.14,0.31,9,0.38,8.85
		C0.45,8.73,0.52,8.6,0.6,8.49C0.66,8.4,0.73,8.32,0.79,8.23C0.87,8.13,0.96,8.02,1,7.88c0.03-0.11,0.04-0.22,0-0.33
		C0.99,7.53,0.99,7.51,0.98,7.48C0.9,7.25,0.61,7.12,0.39,7.26C0.16,7.4,0.15,7.68,0.27,7.85c0.02,0.04,0.06,0.06,0.1,0.07
		c0.18,0.07,0.37-0.04,0.38-0.23c0-0.12-0.08-0.2-0.19-0.17C0.52,7.53,0.48,7.54,0.49,7.59c0,0.02-0.01,0.04-0.03,0.04
		c-0.01,0-0.02,0-0.03-0.01C0.42,7.6,0.42,7.58,0.43,7.57c0.05-0.08,0.15-0.11,0.23-0.07C0.78,7.54,0.83,7.6,0.81,7.71
		C0.79,7.85,0.7,7.96,0.56,8C0.42,8.04,0.3,8,0.2,7.89C0.14,7.82,0.12,7.73,0.12,7.64c-0.01-0.18,0.06-0.32,0.2-0.43
		c0.07-0.05,0.15-0.07,0.24-0.07c0.37-0.04,0.61,0.27,0.57,0.6C1.1,7.92,1,8.07,0.89,8.21c-0.16,0.18-0.3,0.38-0.41,0.6
		C0.4,8.98,0.34,9.16,0.36,9.35c0.04,0.39,0.35,0.71,0.74,0.78c0.3,0.05,0.58-0.01,0.84-0.17c0.4-0.25,0.65-0.6,0.72-1.07
		c0.04-0.27-0.01-0.53-0.11-0.78c-0.04-0.1-0.08-0.2-0.13-0.3C2.42,7.78,2.41,7.74,2.37,7.74C2.35,7.78,2.38,7.81,2.4,7.85
		C2.47,8,2.54,8.16,2.56,8.33c0.05,0.38,0,0.74-0.22,1.06C2.18,9.64,1.95,9.82,1.65,9.9C1.28,10,0.9,9.84,0.76,9.5
		c-0.13-0.3-0.09-0.58,0.12-0.83c0.15-0.19,0.35-0.32,0.61-0.32c0.29,0,0.64,0.32,0.48,0.7c-0.07,0.18-0.2,0.31-0.39,0.37
		C1.44,9.48,1.3,9.49,1.18,9.38C1.06,9.27,1.02,9.13,1.04,8.97c0.03-0.16,0.25-0.3,0.41-0.26c0.06,0.01,0.11,0.04,0.14,0.1
		c-0.03,0.02-0.04,0-0.06-0.01C1.42,8.74,1.32,8.75,1.22,8.83c-0.1,0.08-0.13,0.19-0.1,0.32c0,0.01,0,0.01,0.01,0.02
		c0.06,0.18,0.13,0.22,0.31,0.2c0.11-0.01,0.22-0.03,0.31-0.1c0.15-0.1,0.21-0.3,0.15-0.47C1.81,8.53,1.49,8.38,1.23,8.48
		c-0.24,0.09-0.4,0.26-0.44,0.52C0.75,9.26,0.84,9.47,1.05,9.64C1.12,9.7,1.21,9.73,1.3,9.74c0.13,0.01,0.25,0.01,0.37-0.05
		c0.2-0.1,0.38-0.23,0.5-0.42c0.12-0.19,0.16-0.4,0.17-0.62c0-0.08,0-0.17-0.02-0.25C2.25,8.14,2.14,7.91,1.97,7.71
		C1.8,7.51,1.6,7.33,1.38,7.18C1.25,7.1,1.13,6.99,1.01,6.89C0.91,6.81,0.8,6.74,0.7,6.64c-0.19-0.2-0.37-0.4-0.45-0.67
		C0.2,5.8,0.18,5.64,0.21,5.46c0.04-0.2,0.14-0.35,0.32-0.45C0.82,4.85,1.12,4.84,1.44,4.9c0.27,0.05,0.53,0.14,0.79,0.2
		c0.2,0.05,0.4,0.08,0.61,0.07c0.05,0,0.09-0.02,0.13-0.06c0.22-0.23,0.49-0.38,0.78-0.49c0.31-0.12,0.64-0.19,0.96-0.26
		C4.99,4.3,5.27,4.24,5.52,4.1c0.23-0.13,0.44-0.27,0.6-0.48C6.2,3.51,6.25,3.4,6.28,3.26C6.34,2.98,6.34,2.69,6.3,2.41
		C6.27,2.24,6.2,2.08,6.1,1.94C6.06,1.89,6.02,1.87,5.95,1.89C5.89,1.91,5.84,1.94,5.8,1.98C5.74,2.05,5.68,2.09,5.59,2.09
		c-0.02,0-0.04,0.01-0.06,0.02C5.41,2.23,5.26,2.3,5.14,2.41C5.07,2.46,5,2.51,5,2.6c0,0.04-0.05,0.07-0.11,0.06
		c-0.05,0-0.09-0.02-0.13,0.02C4.73,2.72,4.72,2.66,4.69,2.66C4.67,2.65,4.64,2.64,4.66,2.6c0.02-0.03,0-0.04-0.03-0.03
		c-0.01,0-0.02,0.01-0.03,0.01C4.5,2.61,4.41,2.56,4.39,2.45c-0.02-0.1-0.03-0.2-0.05-0.3C4.33,2.12,4.35,2.09,4.37,2.06
		c0.17-0.14,0.29-0.31,0.4-0.5C4.85,1.46,4.89,1.34,4.86,1.2c-0.01-0.05-0.01-0.1-0.01-0.15c0-0.06,0.02-0.12,0.08-0.15
		c0.1-0.05,0.15-0.15,0.21-0.23C5.16,0.64,5.2,0.61,5.22,0.56c0.02-0.03,0.02-0.05-0.01-0.07C5.2,0.48,5.19,0.47,5.18,0.46
		c-0.06-0.04-0.08-0.1-0.09-0.17c-0.01-0.05,0-0.1-0.03-0.15c0-0.01,0-0.02,0.01-0.02c0.01,0,0.02,0,0.03,0
		C5.1,0.13,5.11,0.15,5.12,0.16c0.04,0.06,0.09,0.11,0.14,0.16C5.28,0.34,5.3,0.35,5.33,0.34C5.35,0.32,5.34,0.3,5.33,0.28
		c-0.02-0.08,0-0.16-0.04-0.24C5.28,0.03,5.28,0.01,5.3,0c0.02-0.01,0.03,0,0.04,0.02c0.03,0.12,0.14,0.17,0.2,0.26
		c0.03,0.05,0.09,0.04,0.14,0.04c0.15,0,0.29,0,0.44,0.04c0.16,0.04,0.3,0.11,0.43,0.19c0.3,0.19,0.52,0.47,0.7,0.78
		C7.38,1.55,7.5,1.79,7.61,2.02c0.07,0.15,0.15,0.3,0.21,0.45c0.02,0.04,0.04,0.04,0.06,0.01C7.91,2.44,7.94,2.4,7.96,2.36
		C8.15,2,8.35,1.65,8.56,1.31c0.22-0.35,0.51-0.62,0.9-0.77c0.22-0.08,0.45-0.11,0.69-0.08c0.06,0.01,0.09,0.01,0.12-0.05
		c0.01-0.03,0.03-0.05,0.06-0.07c0.06-0.04,0.12-0.09,0.14-0.17c0.01-0.02,0.02-0.04,0.05-0.03c0.02,0.01,0.02,0.03,0.01,0.05
		c-0.05,0.1-0.03,0.21-0.07,0.31c0.03,0.02,0.04,0,0.05-0.01c0.06-0.07,0.15-0.12,0.18-0.21c0.01-0.02,0.02-0.04,0.04-0.03
		c0.02,0.01,0.01,0.03,0.01,0.05c-0.02,0.06-0.03,0.11-0.05,0.17c-0.01,0.06-0.06,0.08-0.1,0.12c-0.07,0.05-0.07,0.07-0.03,0.15
		c0.05,0.08,0.09,0.16,0.14,0.24c0.03,0.05,0.07,0.08,0.11,0.11c0.09,0.06,0.11,0.14,0.1,0.24c-0.01,0.08-0.03,0.16,0,0.24
		c0.05,0.12,0.1,0.23,0.18,0.34c0.04,0.05,0.07,0.1,0.1,0.16c0.04,0.08,0.09,0.13,0.17,0.17c0.07,0.04,0.08,0.1,0.04,0.16
		c-0.03,0.04-0.04,0.08-0.04,0.12c0,0,0,0.01,0,0.01c0,0.14-0.04,0.25-0.2,0.27c-0.02,0-0.05,0-0.07,0.03
		c-0.06,0.1-0.16,0.05-0.24,0.04c-0.06-0.01-0.1-0.05-0.11-0.11c-0.02-0.12-0.11-0.19-0.21-0.25c-0.1-0.06-0.21-0.12-0.29-0.21
		c-0.02-0.02-0.04-0.02-0.07-0.03c-0.16-0.03-0.29-0.12-0.41-0.24C9.76,2,9.75,2,9.71,2.01C9.59,2.05,9.55,2.16,9.5,2.25
		c-0.12,0.25-0.15,0.52-0.13,0.8C9.38,3.3,9.45,3.53,9.58,3.75C9.67,3.9,9.8,4.01,9.95,4.1c0.11,0.07,0.22,0.12,0.34,0.18
		c0.26,0.14,0.54,0.21,0.83,0.28c0.34,0.09,0.67,0.21,0.98,0.38c0.16,0.09,0.31,0.2,0.42,0.35c0.05,0.07,0.11,0.1,0.19,0.1
		c0.19,0.01,0.37,0,0.56-0.03c0.32-0.05,0.63-0.15,0.95-0.19c0.26-0.04,0.52-0.02,0.76,0.1c0.12,0.06,0.21,0.14,0.27,0.26
		c0.17,0.32,0.12,0.62-0.07,0.92c-0.15,0.23-0.35,0.41-0.56,0.58c-0.22,0.18-0.46,0.34-0.69,0.52C13.66,7.76,13.44,8,13.29,8.3
		c-0.15,0.3-0.2,0.61-0.11,0.94c0.08,0.26,0.23,0.48,0.49,0.59c0.16,0.07,0.33,0.08,0.5,0.05c0.06-0.01,0.12-0.04,0.17-0.08
		c0.22-0.17,0.31-0.37,0.27-0.64c-0.04-0.23-0.28-0.45-0.51-0.49c-0.31-0.05-0.61,0.24-0.55,0.54c0.05,0.26,0.35,0.43,0.62,0.28
		c0.14-0.08,0.19-0.24,0.12-0.38C14.22,9,14.05,8.95,13.9,9.01c-0.04,0.02-0.08,0.11-0.08,0.15c0.01,0.06,0.09,0.14,0.14,0.14
		C13.99,9.3,14,9.28,14,9.26c0-0.02,0.02-0.04,0.04-0.03c0.02,0.01,0.02,0.03,0.01,0.05c-0.04,0.07-0.14,0.07-0.19,0
		c-0.05-0.06-0.08-0.12-0.05-0.21c0.04-0.09,0.1-0.13,0.19-0.13c0.19-0.01,0.35,0.07,0.36,0.31c0.01,0.2-0.09,0.33-0.28,0.37
		c-0.15,0.03-0.28,0.01-0.4-0.1c-0.09-0.08-0.17-0.16-0.22-0.27c-0.11-0.28,0.09-0.62,0.39-0.66c0.19-0.02,0.36,0.03,0.51,0.14
		c0.15,0.09,0.25,0.22,0.3,0.38c0.07,0.26,0.03,0.51-0.13,0.73c-0.11,0.14-0.27,0.21-0.44,0.22c-0.45,0.04-0.79-0.15-1.01-0.53
		c-0.26-0.44-0.25-0.91-0.03-1.37c0.05-0.12,0.12-0.22,0.19-0.33c0.01-0.01,0.01-0.01,0.02-0.02c0.04-0.03,0.07-0.06,0.09-0.11
		c0,0,0.01-0.01,0.01-0.01c-0.01-0.01-0.01-0.01-0.02,0c-0.03,0.03-0.07,0.07-0.1,0.1c0,0-0.01,0-0.01,0.01
		c-0.1,0.08-0.17,0.17-0.23,0.28c-0.19,0.36-0.26,0.75-0.19,1.16c0.05,0.25,0.15,0.49,0.32,0.68c0.04,0.04,0.08,0.08,0.12,0.11
		c0.27,0.19,0.58,0.29,0.91,0.26c0.39-0.04,0.64-0.26,0.8-0.61c0.11-0.25,0.07-0.5-0.04-0.74c-0.07-0.15-0.17-0.27-0.29-0.38
		c-0.14-0.13-0.24-0.29-0.25-0.48c-0.01-0.1-0.02-0.21,0.01-0.31c0.04-0.2,0.19-0.3,0.37-0.33c0.19-0.03,0.35,0.03,0.48,0.15
		c0.13,0.12,0.18,0.35,0.08,0.51c-0.1,0.16-0.44,0.22-0.57,0.06c-0.04-0.05-0.06-0.1-0.07-0.16c-0.01-0.04,0-0.08,0.01-0.13
		c0,0,0.01,0,0.01,0l0.01,0c0,0.09,0,0.17,0.08,0.24c0.07,0.07,0.16,0.08,0.25,0.07C15.11,8.2,15.23,8.09,15.25,8
		c0.01-0.03,0.02-0.05,0.02-0.08c0.02-0.09-0.03-0.16-0.08-0.23c-0.09-0.11-0.21-0.17-0.35-0.17c-0.2,0-0.34,0.14-0.37,0.34
		c-0.03,0.22,0.04,0.41,0.16,0.59c0.09,0.14,0.2,0.25,0.29,0.39c0.14,0.2,0.22,0.42,0.18,0.67c-0.02,0.1-0.05,0.19-0.08,0.29
		c0,0.02-0.01,0.03-0.01,0.05c0.03,0.02,0.06-0.01,0.08,0c0.04,0.03,0.08,0.02,0.12,0.01c0.01,0.01,0.02,0.03,0.03,0.03
		c0.09,0.05,0.09,0.12,0.06,0.21C15.31,10.09,15.3,10.09,15.29,10.09z M2.36,7.27C2.36,7.27,2.36,7.27,2.36,7.27
		c0-0.01,0-0.01,0-0.01C2.36,7.26,2.36,7.27,2.36,7.27c0.01,0,0.02,0.01,0.03,0.01C2.39,7.29,2.4,7.3,2.4,7.3
		c0.01,0.01,0.01,0.01,0.02,0.02c0.01,0.04,0.04,0.06,0.07,0.09c0.01,0.02,0.02,0.04,0.05,0.05c0-0.03-0.01-0.05-0.03-0.06
		C2.49,7.36,2.47,7.33,2.42,7.32c0-0.01-0.01-0.02-0.02-0.02c0-0.01-0.01-0.02-0.02-0.02C2.38,7.27,2.37,7.27,2.36,7.27z M9.35,3.76
		L9.35,3.76L9.35,3.76C9.34,3.75,9.32,3.75,9.31,3.74C9.27,3.7,9.23,3.66,9.19,3.62C8.7,3.14,8.5,2.55,8.57,1.87
		c0.03-0.3,0.14-0.57,0.36-0.8c0.14-0.15,0.29-0.23,0.5-0.17C9.53,0.94,9.61,0.9,9.67,0.82C9.7,0.8,9.72,0.77,9.74,0.75
		c0.01-0.02,0.04-0.03,0.01-0.06C9.73,0.71,9.7,0.73,9.68,0.75c-0.1,0.09-0.21,0.13-0.34,0.09c-0.04-0.01-0.08,0-0.13,0.01
		C9.09,0.87,8.99,0.94,8.9,1.03c-0.19,0.2-0.31,0.44-0.37,0.71c-0.07,0.3-0.04,0.6,0.03,0.9c0.11,0.45,0.37,0.81,0.72,1.1
		C9.28,3.74,9.29,3.75,9.3,3.75C9.31,3.77,9.33,3.77,9.35,3.76z M6.37,3.62C6.38,3.61,6.4,3.6,6.41,3.59C6.75,3.36,7,3.07,7.15,2.7
		c0.19-0.46,0.21-0.92-0.03-1.37C7.03,1.15,6.94,0.98,6.79,0.85C6.7,0.76,6.6,0.72,6.48,0.74c-0.05,0.01-0.1,0.01-0.15,0
		C6.21,0.73,6.11,0.69,6.05,0.57c0-0.01-0.01-0.04-0.04-0.03c0.01,0.1,0.07,0.18,0.13,0.26c0.01,0.01,0.03,0.01,0.04,0.01
		c0.09,0.01,0.17,0.01,0.26-0.02C6.54,0.76,6.62,0.77,6.7,0.83c0.02,0.02,0.04,0.03,0.07,0.04C6.85,0.97,6.93,1.07,7,1.18
		c0.24,0.39,0.28,0.8,0.16,1.23C7.07,2.74,6.9,3.02,6.68,3.27c-0.09,0.1-0.19,0.2-0.28,0.3C6.37,3.58,6.38,3.6,6.37,3.62L6.37,3.62
		L6.37,3.62z M5.28,1.21c-0.04,0-0.06,0.03-0.08,0.06c-0.01,0.01-0.01,0.02,0,0.02C5.2,1.3,5.21,1.3,5.22,1.3
		C5.25,1.27,5.28,1.25,5.28,1.21c0.01,0,0.02-0.01,0.01-0.02c0,0-0.01-0.01-0.01-0.01C5.28,1.19,5.28,1.2,5.28,1.21z M5.36,2
		c-0.01,0-0.02-0.01-0.02,0c-0.01,0.01,0,0.02,0.01,0.02c0.01,0.01,0.02,0.03,0.04,0.04C5.4,2.08,5.42,2.1,5.45,2.11
		c0.02,0,0.04-0.01,0.05-0.03C5.5,2.06,5.48,2.05,5.47,2.05C5.43,2.03,5.39,2.01,5.36,2z M0.75,6c0,0.02,0.02,0.04,0.03,0.03
		C0.8,6.01,0.78,6,0.77,5.99c0,0,0,0-0.01-0.01C0.75,5.94,0.73,5.9,0.71,5.86c-0.09-0.19-0.04-0.4,0.13-0.53
		C0.85,5.32,0.87,5.32,0.86,5.3C0.71,5.33,0.6,5.45,0.58,5.59C0.55,5.76,0.63,5.89,0.75,6z M12.3,7.01c0.1-0.1,0.18-0.2,0.24-0.33
		c0.08-0.19,0.11-0.39,0.13-0.59c0.01-0.08-0.01-0.18-0.05-0.23C12.6,5.88,12.6,5.9,12.61,5.92c0.01,0.08,0,0.16-0.01,0.24
		c-0.02,0.2-0.06,0.4-0.17,0.58c-0.05,0.08-0.1,0.17-0.15,0.25c-0.02,0.02-0.04,0.04-0.04,0.07C12.28,7.06,12.29,7.04,12.3,7.01z
		 M1.25,6.31c0.01,0,0.02,0.01,0.02,0.01c0.01-0.01,0-0.02-0.01-0.03C1.2,6.21,1.14,6.12,1.1,6.02C1,5.79,1.08,5.55,1.31,5.44
		c0.02-0.01,0.06-0.01,0.07-0.06c-0.09,0-0.16,0.03-0.23,0.07c-0.17,0.09-0.24,0.24-0.2,0.42C0.99,6.07,1.1,6.2,1.25,6.31z
		 M2.24,7.15C2.25,7.17,2.26,7.2,2.3,7.18C2.28,7.16,2.27,7.14,2.24,7.15c0.01-0.02-0.01-0.03-0.02-0.04
		C2.14,7.03,2.06,6.94,1.98,6.87c-0.11-0.1-0.2-0.22-0.27-0.35C1.54,6.18,1.53,5.85,1.75,5.53C1.76,5.52,1.76,5.51,1.75,5.5
		c-0.27,0.13-0.38,0.4-0.29,0.71C1.58,6.64,1.86,6.94,2.24,7.15z M10.5,5.44C10.5,5.44,10.5,5.44,10.5,5.44
		c0-0.2,0.01-0.4,0.01-0.61c0-0.1,0-0.2,0-0.29c0-0.07-0.03-0.11-0.09-0.13c-0.06-0.02-0.13-0.05-0.19-0.07
		c-0.16-0.06-0.32-0.11-0.47-0.18C9.48,4.04,9.2,3.91,8.94,3.72C8.66,3.52,8.41,3.3,8.19,3.03C8.09,2.92,8,2.79,7.9,2.68
		c-0.06-0.07-0.08-0.07-0.14,0c-0.04,0.04-0.06,0.1-0.1,0.14c-0.17,0.15-0.3,0.33-0.48,0.48C7.06,3.38,6.95,3.48,6.84,3.57
		C6.66,3.71,6.46,3.82,6.26,3.92c-0.3,0.15-0.61,0.27-0.93,0.34C5.22,4.28,5.21,4.28,5.21,4.39C5.21,4.91,5.2,5.42,5.19,5.94
		c0,0.31-0.02,0.62,0.04,0.94c0.04,0.25,0.1,0.49,0.19,0.72c0.2,0.49,0.47,0.93,0.79,1.36c0.18,0.24,0.38,0.46,0.58,0.69
		c0.25,0.28,0.52,0.55,0.8,0.81c0.08,0.07,0.09,0.07,0.17,0.01c0.19-0.15,0.36-0.3,0.54-0.46c0.14-0.13,0.28-0.26,0.42-0.4
		C9.08,9.22,9.42,8.83,9.72,8.4c0.12-0.17,0.22-0.34,0.32-0.51c0.29-0.48,0.44-1.01,0.44-1.57C10.49,6.03,10.5,5.74,10.5,5.44z
		 M3.14,8.22c0.01,0,0.01,0.01,0.02,0.01c0.03-0.08,0.1-0.11,0.15-0.16c0.11-0.09,0.2-0.2,0.3-0.29C3.68,7.7,3.74,7.62,3.79,7.53
		c0.03-0.06,0.02-0.1-0.04-0.14c-0.03-0.02-0.06-0.04-0.1-0.06C3.41,7.21,3.21,7.04,3.03,6.86c-0.27-0.27-0.36-0.6-0.32-0.98
		c0.01-0.13,0.06-0.25,0.1-0.37c0.03-0.08,0.02-0.09-0.06-0.09c-0.12,0-0.24,0.01-0.35,0.03C2.17,5.5,2.03,5.66,2.02,5.9
		C2.01,5.99,2.02,6.07,2.04,6.16C2.09,6.4,2.22,6.6,2.37,6.78c0.21,0.25,0.4,0.51,0.56,0.8c0.08,0.14,0.14,0.29,0.16,0.46
		C3.1,8.1,3.12,8.16,3.14,8.22z M13.81,5.78c0.08,0.03,0.08,0.11,0.12,0.17C14,6.04,14.02,6.16,14,6.28
		c-0.01,0.09-0.03,0.19-0.07,0.28c-0.15,0.32-0.38,0.57-0.65,0.78c-0.08,0.06-0.14,0.13-0.2,0.2c-0.01,0.01-0.02,0.02,0,0.04
		c0.11-0.1,0.22-0.19,0.34-0.28c0.17-0.13,0.33-0.27,0.46-0.43c0.11-0.14,0.21-0.29,0.24-0.47c0.05-0.25-0.03-0.45-0.22-0.6
		C13.87,5.77,13.85,5.75,13.81,5.78z M14.18,5.65c0,0.01-0.01,0.01-0.01,0.02c0.04,0.02,0.08,0.05,0.12,0.07
		c0.15,0.08,0.23,0.24,0.22,0.4c-0.01,0.11-0.06,0.21-0.11,0.31c-0.01,0.02-0.03,0.03,0,0.07c0.09-0.14,0.18-0.26,0.21-0.42
		c0-0.01,0-0.03,0-0.04c0-0.1-0.04-0.19-0.1-0.26C14.43,5.7,14.31,5.65,14.18,5.65z M2.93,5.73C2.89,5.87,2.88,6.02,2.89,6.16
		c0.03,0.3,0.14,0.55,0.39,0.72C3.29,6.89,3.3,6.91,3.32,6.89C3,6.57,2.93,6.16,2.93,5.73z M14.67,6.45c0.01,0,0.02,0.01,0.02,0
		c0.13-0.1,0.24-0.22,0.29-0.37c0.07-0.21-0.01-0.4-0.19-0.5c-0.02-0.01-0.05-0.02-0.07,0c0,0.02,0.01,0.02,0.02,0.03
		c0.1,0.09,0.17,0.2,0.16,0.34c-0.01,0.16-0.08,0.3-0.18,0.43C14.71,6.4,14.68,6.41,14.67,6.45z M10.53,0.9
		c-0.01,0.01-0.02,0.01-0.03,0.02c0.03,0.06,0.06,0.12,0.1,0.17c0.07,0.11,0.13,0.22,0.13,0.35c0,0.03,0.01,0.06,0.02,0.08
		c0.05,0.08,0.09,0.17,0.13,0.26c0.02,0.04,0.04,0.07,0.1,0.09c-0.02-0.05-0.03-0.1-0.05-0.13c-0.08-0.13-0.1-0.27-0.13-0.41
		C10.78,1.15,10.66,1.02,10.53,0.9z M5.24,0.81c-0.01,0-0.01-0.01-0.02-0.01C5.18,0.84,5.15,0.88,5.11,0.91
		C5.03,0.98,4.99,1.06,4.98,1.15C4.96,1.26,4.95,1.37,4.91,1.48C4.9,1.52,4.86,1.56,4.86,1.62C4.89,1.62,4.9,1.6,4.91,1.59
		c0.06-0.12,0.11-0.23,0.13-0.36c0.01-0.07,0.04-0.14,0.08-0.2C5.17,0.96,5.21,0.89,5.24,0.81z M11.2,2.61
		c0-0.03-0.02-0.05-0.04-0.06c-0.07-0.06-0.06-0.12-0.04-0.19c0.01-0.05,0.04-0.05,0.08-0.04c0.04,0.01,0.06,0.03,0.05,0.07
		c0,0.03-0.02,0.05,0.01,0.09c0.03-0.05,0.03-0.1,0.03-0.14c0-0.02-0.01-0.03-0.02-0.04c-0.05-0.01-0.09-0.02-0.14-0.02
		c-0.03,0-0.04,0.01-0.05,0.04c-0.01,0.05-0.03,0.11-0.03,0.16C11.04,2.56,11.1,2.61,11.2,2.61z M9.81,1.51
		C9.75,1.58,9.68,1.64,9.66,1.74c-0.01,0.05-0.02,0.1-0.01,0.15c0,0.03,0.02,0.06,0.06,0.05c0.04-0.01,0.05-0.04,0.03-0.07
		C9.7,1.79,9.74,1.71,9.77,1.63C9.78,1.59,9.81,1.56,9.81,1.51z M4.71,2.28C4.71,2.24,4.7,2.19,4.68,2.15
		C4.67,2.12,4.65,2.09,4.61,2.1c-0.04,0.02-0.1,0-0.11,0.06C4.49,2.19,4.47,2.24,4.5,2.26c0.04,0.01,0.03-0.04,0.04-0.06
		c0.01-0.03,0.05-0.05,0.07-0.03c0.03,0.04,0.05,0.09,0.04,0.15c0,0.04-0.03,0.05-0.06,0.07c-0.01,0-0.02,0.01-0.02,0.02
		c-0.01,0.01-0.01,0.02,0,0.03c0,0,0.01,0.01,0.02,0.01C4.65,2.43,4.72,2.36,4.71,2.28z M5.97,1.43C5.99,1.48,6,1.53,6.03,1.58
		C6.05,1.63,6.04,1.7,6.04,1.75c0,0.02-0.01,0.05,0.03,0.06c0.04,0,0.05-0.02,0.06-0.05c0.01-0.03,0.01-0.06,0-0.09
		C6.11,1.61,6.1,1.53,6.05,1.48C6.03,1.46,6.03,1.42,5.97,1.43z M10.62,1.97c-0.13-0.13-0.19-0.29-0.32-0.39
		c0.02,0.07,0.05,0.14,0.11,0.19c0.04,0.04,0.06,0.08,0.08,0.13C10.52,1.98,10.52,1.98,10.62,1.97z M4.05,7.98
		c0.09-0.14,0.14-0.28,0.13-0.43C4.12,7.66,4.1,7.78,4.05,7.89C4.04,7.9,4.04,7.92,4.03,7.94C4.03,7.95,4.04,7.96,4.05,7.98z
		 M11.46,8.08c0.01-0.04-0.03-0.36-0.06-0.44C11.36,7.81,11.42,7.94,11.46,8.08z M5.32,1.6C5.33,1.6,5.34,1.61,5.35,1.62
		C5.39,1.53,5.51,1.49,5.5,1.36C5.44,1.44,5.38,1.52,5.32,1.6z M10.46,1.23c-0.07-0.01-0.1,0.01-0.15,0.1
		C10.38,1.32,10.4,1.25,10.46,1.23z M5.43,1.11C5.4,1.07,5.37,1.04,5.32,1.07C5.27,1.1,5.3,1.14,5.3,1.18
		C5.33,1.11,5.38,1.11,5.43,1.11z M5.27,1.67C5.24,1.7,5.19,1.7,5.2,1.76c0,0.01,0.02,0.02,0.03,0.02C5.26,1.76,5.29,1.73,5.27,1.67
		z M14.68,6.46c0,0-0.01-0.01-0.01-0.01c-0.02,0.01-0.03,0.02-0.03,0.04c0,0,0.01,0.01,0.01,0.01C14.66,6.49,14.67,6.48,14.68,6.46z
		 M5.33,1.63C5.33,1.63,5.32,1.62,5.33,1.63c-0.01,0-0.01,0-0.01,0C5.32,1.64,5.32,1.64,5.33,1.63C5.33,1.63,5.33,1.63,5.33,1.63z
		 M2.33,7.22L2.33,7.22L2.33,7.22L2.33,7.22z"/>
	<path d="M15.23,11.14c-0.08,0.09-0.18,0.13-0.3,0.13c-0.11,0-0.22-0.09-0.25-0.2c-0.02-0.06,0.02-0.15,0.06-0.18
		c0.04-0.03,0.14-0.02,0.19,0.01c0.03,0.02,0.05,0.08,0.02,0.11c-0.01,0.01-0.02,0.01-0.03,0.01c-0.02,0-0.02-0.02-0.01-0.03
		c0.01-0.07,0.01-0.09-0.03-0.1c-0.05-0.01-0.09,0.02-0.1,0.08c-0.03,0.11,0.01,0.21,0.09,0.24c0.07,0.03,0.16,0.04,0.24,0
		c0.04-0.02,0.08-0.05,0.12-0.08C15.22,11.13,15.23,11.14,15.23,11.14z"/>
	<path d="M2.84,10.61c-0.05-0.02-0.1-0.03-0.15-0.03c-0.07,0.01-0.12,0.05-0.15,0.11c-0.02,0.05,0,0.12,0.05,0.14
		c0.03,0.02,0.06,0.03,0.07-0.03c0-0.02,0-0.03,0.02-0.04c0.01,0,0.03,0,0.03,0.01c0.01,0.02,0.01,0.04-0.01,0.05
		c-0.02,0.03-0.06,0.04-0.09,0.04c-0.06-0.01-0.12-0.07-0.13-0.14c-0.01-0.17,0.1-0.26,0.27-0.21c0.03,0.01,0.06,0.02,0.08,0.05
		C2.84,10.59,2.84,10.6,2.84,10.61z"/>
	<path d="M6.11,10.78c0.01,0,0.02,0,0.04-0.01c0.04,0.06,0.08,0.14,0.13,0.19c0.04,0.05,0.09,0.09,0.15,0.11
		c0.04,0.02,0.08,0.04,0.13,0.01c0.03-0.02,0.05-0.01,0.06,0.02c0.01,0.03-0.02,0.05-0.05,0.05c-0.05,0-0.09-0.01-0.13-0.03
		C6.28,11.05,6.17,10.93,6.11,10.78z"/>
	<path d="M2.44,11.08c0-0.01,0.01-0.02,0.01-0.03c0.08,0.01,0.16,0.01,0.23-0.01c0.19-0.05,0.28-0.28,0.17-0.43
		c0,0,0.01-0.01,0.01-0.01c0.08,0.1,0.07,0.24-0.01,0.35C2.76,11.08,2.59,11.13,2.44,11.08z"/>
	<path d="M11.66,10.16c0,0.01,0,0.03,0,0.04c-0.09,0.05-0.16,0.02-0.23-0.04c-0.06-0.07-0.09-0.14-0.06-0.23
		c0.01-0.04,0.04-0.06,0.08-0.07c0.02,0,0.03,0.01,0.04,0.02c0,0.02-0.01,0.03-0.02,0.03c-0.07,0.03-0.08,0.05-0.07,0.12
		c0.02,0.07,0.07,0.12,0.14,0.13C11.59,10.17,11.63,10.17,11.66,10.16z"/>
	<path d="M14.7,7.9L14.7,7.9c-0.01,0-0.02,0-0.02,0c0.02-0.09,0.07-0.14,0.16-0.16c0.09-0.02,0.15,0.02,0.21,0.08
		c0.03,0.03,0.03,0.07,0.03,0.11c0,0.03-0.02,0.04-0.05,0.03C15,7.95,14.98,7.94,15,7.91c0.01-0.02,0.03-0.04,0.02-0.06
		c0,0-0.01-0.01-0.01-0.01C14.82,7.72,14.78,7.79,14.7,7.9z"/>
	<path d="M9.21,10.94c-0.08,0.12-0.19,0.21-0.35,0.22c-0.02,0-0.04,0-0.06,0c-0.03-0.01-0.05-0.03-0.04-0.06
		c0.01-0.03,0.04-0.03,0.06-0.01c0.04,0.03,0.08,0.04,0.12,0.02c0.07-0.02,0.12-0.05,0.17-0.11c0.03-0.03,0.05-0.07,0.09-0.09
		C9.2,10.92,9.21,10.93,9.21,10.94z"/>
	<path d="M15.29,10.09c0.01,0,0.02,0,0.03,0c-0.01,0.1-0.09,0.13-0.15,0.19c-0.02,0.02-0.04,0.01-0.06,0
		c-0.02-0.01-0.03-0.03-0.02-0.05c0.01-0.03,0.03-0.03,0.05-0.03C15.22,10.21,15.26,10.16,15.29,10.09z"/>
	<path d="M1.53,9.09C1.49,9.14,1.44,9.15,1.38,9.15c-0.03,0-0.06-0.01-0.07-0.04C1.3,9.09,1.3,9.06,1.32,9.05
		c0.02-0.02,0.05-0.02,0.07,0.01C1.42,9.13,1.48,9.1,1.53,9.09L1.53,9.09z"/>
	<path d="M4.02,9.98c-0.02-0.02,0-0.04,0-0.06C4.03,9.85,4.02,9.84,3.95,9.8C3.93,9.79,3.92,9.78,3.93,9.76
		c0.01-0.03,0.04-0.02,0.06-0.01C4.04,9.79,4.06,9.9,4.02,9.98z"/>
	<path d="M7.28,10.7c0.01-0.03-0.01-0.05-0.01-0.07c0-0.03,0.02-0.04,0.05-0.03c0.02,0,0.03,0.02,0.02,0.04
		c-0.01,0.03-0.02,0.06-0.04,0.08C7.29,10.72,7.28,10.71,7.28,10.7z"/>
	<path d="M15.22,9.85c-0.04,0.01-0.09,0.02-0.12-0.01C15.14,9.82,15.18,9.82,15.22,9.85z"/>
	<path d="M1.62,8.97c0-0.04,0.01-0.08-0.01-0.12C1.65,8.9,1.65,8.9,1.62,8.97L1.62,8.97z"/>
	<path d="M1.61,9.02C1.61,9.03,1.6,9.06,1.59,9.04C1.57,9.03,1.59,9.02,1.6,9.01C1.61,9.01,1.61,9.02,1.61,9.02z"/>
	<path d="M2.84,10.61c0-0.01,0-0.02,0-0.03c0.02,0,0.02,0.02,0.03,0.03c0,0-0.01,0.01-0.01,0.01C2.85,10.61,2.84,10.61,2.84,10.61z"
		/>
	<path d="M1.62,8.97c0.01,0.02,0,0.03-0.01,0.05c0,0-0.01-0.01-0.01-0.01C1.6,9,1.6,8.98,1.62,8.97C1.62,8.97,1.62,8.97,1.62,8.97z"
		/>
	<path d="M15.25,11.12c-0.01,0.01-0.01,0.01-0.02,0.02c0,0-0.01-0.01-0.01-0.01c0-0.01,0.01-0.02,0.02-0.02
		C15.24,11.11,15.25,11.12,15.25,11.12z"/>
	<path d="M9.21,10.94c0-0.01,0-0.02-0.01-0.03c0.01,0,0.01-0.01,0.02,0C9.23,10.93,9.22,10.94,9.21,10.94z"/>
	<path d="M9.25,10.88c-0.01,0.01-0.01,0.03-0.02,0.02c-0.01-0.01,0-0.02,0-0.03C9.24,10.87,9.24,10.87,9.25,10.88z"/>
	<path d="M7.26,10.72c0-0.01,0.01-0.02,0.02-0.02c0.01,0.01,0.01,0.01,0.02,0.02c0,0.01-0.01,0.01-0.01,0.02
		C7.27,10.73,7.26,10.73,7.26,10.72z"/>
	<path d="M3.97,10.04c0-0.01,0.01-0.02,0.02-0.02l0.01,0.01C3.99,10.04,3.99,10.05,3.97,10.04C3.97,10.05,3.97,10.04,3.97,10.04z"/>
	<path d="M3.99,10.02c0-0.01,0-0.02,0.01-0.01C4.01,10.01,4,10.02,3.99,10.02C3.99,10.03,3.99,10.02,3.99,10.02z"/>
	<path d="M1.53,9.09c0-0.01,0.01-0.02,0.01-0.03l0,0C1.55,9.08,1.55,9.09,1.53,9.09C1.53,9.09,1.53,9.09,1.53,9.09z"/>
	<path d="M1.54,9.07c0.01,0,0.01,0,0.02-0.01c0,0,0,0.01,0,0.01C1.55,9.07,1.55,9.07,1.54,9.07C1.54,9.07,1.54,9.07,1.54,9.07z"/>
	<path d="M9.44,10.45c-0.01,0.01-0.01,0.01-0.02,0.02c-0.01-0.01-0.02-0.01-0.03-0.02c0.01-0.01,0.01-0.01,0.02-0.02
		C9.42,10.43,9.43,10.44,9.44,10.45z"/>
	<path d="M9.42,10.43c0.01,0,0.02-0.01,0.02-0.01c0.01,0.01,0.01,0.02,0,0.03C9.43,10.44,9.42,10.43,9.42,10.43z"/>
	<path d="M5.33,1.63C5.33,1.63,5.33,1.63,5.33,1.63c0,0.01-0.01,0.01-0.01,0C5.32,1.63,5.32,1.62,5.33,1.63
		C5.32,1.62,5.33,1.63,5.33,1.63z"/>
	<path d="M2.36,7.27c0,0,0-0.01,0-0.01C2.36,7.26,2.36,7.26,2.36,7.27C2.36,7.27,2.36,7.27,2.36,7.27C2.36,7.27,2.36,7.27,2.36,7.27
		z"/>
	<polygon points="6.37,3.62 6.36,3.62 6.37,3.62 	"/>
	<polygon points="9.35,3.76 9.35,3.76 9.35,3.76 	"/>
	<path d="M6.18,6.42c0.09,0.15,0.21,0.28,0.32,0.42C6.38,6.86,6.38,6.86,6.32,6.78C6.25,6.68,6.17,6.59,6.1,6.49
		C6.08,6.47,6.06,6.45,6.04,6.44C6,6.41,5.98,6.43,5.97,6.48c0,0.1,0,0.2,0.01,0.3c0,0.05-0.02,0.06-0.06,0.06
		c-0.06,0-0.06,0-0.06-0.06c0-0.14,0.02-0.28,0.01-0.42c0-0.11,0.01-0.23,0-0.34c0-0.05,0.01-0.07,0.06-0.06
		c0.11,0.01,0.21-0.01,0.32,0.01c0.11,0.02,0.17,0.07,0.18,0.15c0.02,0.1-0.02,0.17-0.11,0.23C6.28,6.38,6.22,6.38,6.18,6.42z
		 M5.98,6.23C5.98,6.23,5.98,6.23,5.98,6.23c0,0.02,0,0.05,0,0.07c0,0.06,0.01,0.08,0.07,0.07c0.06,0,0.11,0,0.16-0.03
		c0.08-0.03,0.12-0.11,0.11-0.19C6.32,6.08,6.27,6.03,6.18,6.01C6.14,6,6.09,6.01,6.05,6.01c-0.04,0-0.06,0.02-0.06,0.06
		C5.98,6.12,5.98,6.18,5.98,6.23z"/>
	<path d="M8,5.12C8.03,5.1,8.02,5.06,8.02,5.03c0-0.08,0-0.17,0-0.25c0-0.07,0-0.07,0.07-0.07c0.01,0,0.03,0,0.04,0
		C8.12,4.89,8.12,5.07,8.11,5.25c0,0.12,0,0.25,0,0.37c0,0.03-0.01,0.06-0.05,0.06c-0.03,0-0.05,0-0.05-0.04
		C8.01,5.62,8.02,5.6,8,5.57C7.94,5.65,7.87,5.69,7.77,5.68C7.67,5.67,7.6,5.64,7.56,5.55C7.51,5.41,7.5,5.28,7.59,5.16
		C7.69,5.04,7.83,5.02,7.96,5.1C7.97,5.11,7.98,5.12,8,5.12z M7.64,5.43c0,0.03,0.01,0.08,0.03,0.12c0.05,0.09,0.16,0.12,0.25,0.05
		c0.03-0.02,0.06-0.05,0.07-0.09C8.03,5.42,8.03,5.32,8,5.22C7.97,5.15,7.92,5.11,7.85,5.11c-0.08,0-0.14,0.03-0.17,0.1
		C7.64,5.27,7.64,5.34,7.64,5.43z"/>
	<path d="M7.18,6.78c-0.07,0.09-0.16,0.1-0.26,0.07C6.81,6.82,6.77,6.74,6.74,6.64c-0.02-0.1,0-0.2,0.04-0.29
		C6.85,6.22,7.05,6.2,7.15,6.27c0.02,0.02,0.04,0.04,0.08,0.05c0.02-0.06,0.01-0.11,0.01-0.17c0-0.07,0-0.14,0-0.21
		c0-0.04,0-0.06,0.05-0.06c0.04,0,0.06,0.01,0.06,0.06C7.33,6.16,7.33,6.38,7.32,6.59c0,0.07,0,0.14,0,0.21
		c0,0.03-0.01,0.05-0.04,0.05c-0.03,0-0.05-0.01-0.05-0.04C7.23,6.77,7.22,6.76,7.18,6.78c-0.03-0.02,0-0.03,0-0.04
		c0.06-0.09,0.06-0.2,0.04-0.3C7.21,6.35,7.15,6.3,7.07,6.29C6.98,6.27,6.92,6.31,6.88,6.39C6.84,6.49,6.83,6.59,6.86,6.69
		c0.04,0.13,0.15,0.17,0.27,0.1C7.14,6.78,7.16,6.75,7.18,6.78z"/>
	<path d="M8.36,6.27C8.27,6.34,8.2,6.41,8.12,6.47C8.08,6.5,8.08,6.53,8.11,6.57C8.18,6.64,8.25,6.72,8.32,6.8
		c0.01,0.02,0.04,0.03,0.04,0.06C8.29,6.88,8.23,6.87,8.18,6.81C8.13,6.74,8.07,6.67,8.02,6.6C8.01,6.59,8,6.57,7.97,6.58
		C7.95,6.58,7.95,6.6,7.95,6.62c0,0.07,0,0.13,0,0.19c0,0.04-0.02,0.05-0.05,0.05c-0.04,0-0.05-0.01-0.05-0.05
		c0-0.1,0.01-0.21,0.01-0.31c0-0.18,0-0.36,0-0.55c0-0.03-0.01-0.07,0.05-0.06c0.05,0,0.06,0,0.06,0.06c0,0.15-0.01,0.29-0.01,0.44
		c0,0.02,0,0.04,0,0.06c0,0.02-0.01,0.05,0.02,0.06C8,6.52,8.01,6.5,8.03,6.49c0.06-0.06,0.13-0.11,0.18-0.17
		C8.25,6.27,8.29,6.25,8.36,6.27z"/>
	<path d="M5.6,4.77c0.02,0,0.03-0.01,0.04-0.01c0.09-0.01,0.09-0.01,0.11,0.08c0.06,0.2,0.15,0.4,0.22,0.6
		c0.01,0.02,0.01,0.04,0.04,0.06c0.04-0.02,0.04-0.05,0.06-0.09c0.08-0.19,0.16-0.38,0.23-0.57c0.02-0.05,0.04-0.08,0.1-0.06
		c0.01,0.02,0,0.04-0.01,0.06c-0.12,0.25-0.23,0.5-0.33,0.75C6.04,5.63,6.02,5.65,5.98,5.65c-0.05,0-0.05-0.04-0.06-0.06
		c-0.1-0.26-0.21-0.51-0.31-0.77C5.6,4.81,5.6,4.79,5.6,4.77z"/>
	<path d="M6.91,5.06c0.11,0,0.11,0,0.13,0.07C7.08,5.1,7.12,5.06,7.17,5.05c0.16-0.03,0.28,0.06,0.28,0.22
		c0,0.11-0.01,0.23-0.01,0.34c0,0.05-0.02,0.06-0.07,0.06c-0.05,0-0.04-0.03-0.04-0.06c0.01-0.09,0.01-0.19,0.01-0.28
		c0-0.03,0-0.06-0.01-0.09C7.33,5.16,7.29,5.12,7.23,5.11C7.15,5.1,7.09,5.13,7.05,5.19C7.03,5.23,7.03,5.27,7.03,5.31
		c0,0.09,0,0.19,0,0.28c0,0.04,0,0.07-0.06,0.07c-0.05,0-0.05-0.03-0.05-0.06c0-0.12,0.01-0.24,0.01-0.36
		C6.93,5.18,6.93,5.12,6.91,5.06z"/>
	<path d="M8.64,6.26C8.8,6.24,8.97,6.35,8.97,6.54c0,0.21-0.1,0.33-0.29,0.34C8.48,6.89,8.35,6.78,8.34,6.6
		C8.34,6.39,8.45,6.26,8.64,6.26z M8.86,6.53c0-0.02,0-0.05-0.01-0.08C8.83,6.35,8.76,6.3,8.68,6.29c-0.1,0-0.17,0.04-0.2,0.13
		c-0.03,0.09-0.03,0.19,0,0.29C8.49,6.8,8.55,6.84,8.63,6.85c0.1,0.01,0.16-0.03,0.2-0.11C8.86,6.67,8.86,6.61,8.86,6.53z"/>
	<path d="M8.73,5.57c0.01,0.05-0.02,0.07-0.04,0.08C8.56,5.71,8.44,5.71,8.32,5.64c-0.06-0.04-0.1-0.1-0.11-0.18
		C8.2,5.41,8.2,5.35,8.21,5.3c0.05-0.25,0.27-0.27,0.42-0.21C8.72,5.13,8.76,5.2,8.77,5.3c0,0.07,0,0.07-0.07,0.07
		c-0.11,0-0.21,0-0.32,0c-0.07,0-0.08,0.01-0.07,0.08c0.02,0.16,0.18,0.24,0.33,0.17C8.67,5.61,8.7,5.59,8.73,5.57z M8.49,5.32
		C8.49,5.33,8.49,5.33,8.49,5.32c0.04,0,0.08,0,0.13,0c0.02,0,0.04-0.01,0.04-0.03c0.01-0.07-0.03-0.15-0.09-0.18
		C8.5,5.08,8.42,5.1,8.37,5.16c-0.02,0.03-0.04,0.07-0.05,0.1c-0.01,0.04,0,0.06,0.04,0.06C8.41,5.33,8.45,5.32,8.49,5.32z"/>
	<path d="M6.81,5.55C6.83,5.58,6.82,5.6,6.81,5.61c-0.12,0.1-0.4,0.08-0.48-0.08C6.26,5.41,6.28,5.2,6.38,5.11
		c0.1-0.09,0.21-0.09,0.33-0.05C6.8,5.09,6.85,5.17,6.86,5.28c0,0.05-0.01,0.07-0.06,0.06c-0.1,0-0.21,0-0.31,0
		c-0.08,0-0.09,0.01-0.08,0.09c0.02,0.14,0.15,0.23,0.3,0.18C6.74,5.6,6.77,5.57,6.81,5.55z M6.41,5.3c0.1,0.01,0.2,0.01,0.3,0.01
		c0.02,0,0.04-0.01,0.04-0.03c0.01-0.1-0.06-0.2-0.16-0.2C6.49,5.08,6.42,5.17,6.41,5.3z"/>
	<path d="M9.28,6.38C9.26,6.35,9.27,6.33,9.29,6.31C9.36,6.25,9.53,6.24,9.61,6.3c0.05,0.04,0.08,0.09,0.08,0.16
		c0,0.08-0.01,0.17-0.01,0.25c0,0.06-0.01,0.13,0.08,0.15C9.7,6.89,9.65,6.89,9.62,6.85C9.59,6.82,9.57,6.82,9.54,6.85
		C9.47,6.89,9.4,6.91,9.32,6.88c-0.06-0.02-0.1-0.06-0.1-0.13C9.21,6.69,9.23,6.63,9.3,6.6c0.06-0.03,0.12-0.04,0.19-0.05
		c0.09-0.02,0.11-0.03,0.11-0.08c0-0.08-0.03-0.13-0.1-0.15C9.41,6.29,9.35,6.32,9.28,6.38z M9.6,6.64c0-0.02,0.02-0.07-0.03-0.07
		c-0.07,0-0.14,0.01-0.19,0.05C9.32,6.66,9.3,6.72,9.32,6.77c0.02,0.05,0.07,0.08,0.12,0.07C9.55,6.82,9.6,6.79,9.6,6.64z"/>
	<path d="M10.07,5.39c0.01,0.19-0.11,0.32-0.3,0.32C9.58,5.71,9.45,5.6,9.45,5.42c-0.01-0.24,0.14-0.33,0.3-0.34
		C9.92,5.07,10.08,5.2,10.07,5.39z M9.97,5.38c0-0.05,0-0.09-0.02-0.13C9.91,5.16,9.85,5.12,9.76,5.12c-0.1,0-0.16,0.04-0.19,0.14
		C9.55,5.34,9.55,5.42,9.56,5.51c0.02,0.1,0.09,0.16,0.17,0.17c0.11,0,0.18-0.04,0.21-0.15C9.96,5.48,9.97,5.43,9.97,5.38z"/>
	<path d="M7.72,6.37C7.68,6.33,7.66,6.28,7.6,6.29C7.54,6.29,7.5,6.32,7.49,6.37C7.48,6.42,7.5,6.46,7.55,6.49
		C7.6,6.51,7.65,6.52,7.69,6.54C7.8,6.59,7.82,6.71,7.74,6.8C7.69,6.86,7.62,6.88,7.55,6.88c-0.03,0-0.05-0.01-0.08-0.01
		c-0.09-0.01-0.1-0.02-0.05-0.12C7.44,6.77,7.46,6.79,7.48,6.8C7.53,6.84,7.6,6.84,7.64,6.81c0.08-0.06,0.07-0.14-0.02-0.19
		C7.59,6.61,7.55,6.6,7.51,6.59c-0.1-0.04-0.13-0.11-0.11-0.22c0.02-0.07,0.12-0.14,0.2-0.13c0.02,0,0.04,0.01,0.07,0.02
		C7.76,6.27,7.76,6.27,7.72,6.37z"/>
	<path d="M9.33,5.18C9.3,5.16,9.29,5.14,9.26,5.13C9.21,5.1,9.14,5.12,9.11,5.17C9.08,5.22,9.1,5.28,9.16,5.31
		C9.2,5.33,9.24,5.34,9.28,5.36C9.35,5.38,9.39,5.42,9.4,5.5c0.01,0.08-0.03,0.13-0.09,0.16C9.23,5.72,9.13,5.71,9.03,5.68
		C8.97,5.66,9.02,5.62,9.02,5.59c0.04-0.01,0.05,0.02,0.07,0.04c0.04,0.03,0.09,0.04,0.14,0.03C9.27,5.64,9.3,5.61,9.31,5.56
		c0.01-0.05-0.02-0.08-0.06-0.1C9.21,5.44,9.17,5.43,9.13,5.42c-0.1-0.04-0.14-0.1-0.13-0.18c0.01-0.09,0.08-0.16,0.18-0.17
		c0.04,0,0.08,0,0.12,0.01C9.36,5.1,9.36,5.1,9.33,5.18z"/>
	<path d="M9.12,6.39c0.01,0.14,0.01,0.29,0.02,0.43c0,0.05-0.02,0.06-0.06,0.06c-0.05,0-0.05-0.02-0.05-0.06
		c0.02-0.28,0.02-0.56,0.01-0.85c0-0.06,0.01-0.06,0.07-0.06c0.04,0,0.05,0.02,0.05,0.05C9.14,6.1,9.13,6.25,9.12,6.39z"/>
	<path d="M8.92,5.19c0.01,0.14,0.01,0.29,0.02,0.43c0,0.06-0.01,0.06-0.07,0.06c-0.04,0-0.04-0.02-0.04-0.05
		c0.02-0.29,0.02-0.58,0.01-0.87c0-0.05,0.03-0.05,0.06-0.05c0.04,0,0.05,0.02,0.05,0.05C8.94,4.91,8.94,5.05,8.93,5.19
		C8.93,5.19,8.93,5.19,8.92,5.19z"/>
	<path d="M9.15,7.77C9.03,7.85,8.91,7.79,8.89,7.65c0-0.05-0.02-0.11,0.02-0.16C9,7.4,9.05,7.39,9.18,7.45
		c0.02-0.06,0-0.12,0.01-0.17c0-0.03-0.02-0.08,0.04-0.08c0.06,0,0.03,0.05,0.03,0.08c0,0.15-0.01,0.29-0.01,0.44
		c0,0.03,0.02,0.06-0.02,0.07C9.18,7.81,9.2,7.75,9.17,7.74l0,0C9.16,7.72,9.18,7.7,9.19,7.68c0.01-0.05,0.02-0.11,0-0.16
		c-0.02-0.04-0.05-0.07-0.1-0.07c-0.05,0-0.08,0.02-0.1,0.06C8.96,7.55,8.96,7.6,8.96,7.64c0.01,0.11,0.06,0.15,0.17,0.12
		C9.13,7.77,9.14,7.77,9.15,7.77L9.15,7.77z"/>
	<path d="M8.04,8.22C7.9,8.27,7.85,8.33,7.85,8.48C7.88,8.49,7.9,8.46,7.92,8.45C8,8.43,8.08,8.46,8.11,8.53
		c0.03,0.07,0.01,0.16-0.06,0.2C7.95,8.8,7.81,8.75,7.78,8.63C7.76,8.51,7.77,8.4,7.84,8.3C7.88,8.23,7.95,8.21,8.04,8.22z
		 M7.84,8.61c0,0.01,0.01,0.03,0.01,0.04c0.02,0.06,0.05,0.09,0.1,0.08c0.05,0,0.08-0.03,0.1-0.09c0.01-0.03,0.01-0.06,0-0.1
		C8.04,8.52,8.03,8.48,8,8.47c-0.05-0.01-0.09,0-0.13,0.03C7.84,8.53,7.85,8.57,7.84,8.61z"/>
	<path d="M6.68,6.24c-0.01,0.2-0.02,0.38-0.01,0.57c0,0.05-0.03,0.05-0.06,0.05c-0.04,0-0.05-0.02-0.05-0.05
		C6.57,6.65,6.57,6.5,6.57,6.35C6.57,6.25,6.55,6.25,6.68,6.24z"/>
	<path d="M7.59,8.51c-0.07,0.04-0.14,0.04-0.19,0C7.36,8.47,7.34,8.4,7.36,8.33C7.38,8.27,7.43,8.22,7.5,8.22
		C7.62,8.2,7.7,8.26,7.71,8.38c0.01,0.13,0,0.26-0.12,0.35c-0.01,0-0.02,0-0.03-0.01C7.6,8.67,7.63,8.61,7.64,8.53
		C7.65,8.49,7.62,8.5,7.59,8.51c0.01-0.03,0.03-0.05,0.04-0.08c0.02-0.04,0.02-0.09-0.01-0.13C7.6,8.23,7.52,8.22,7.46,8.26
		C7.42,8.31,7.41,8.4,7.43,8.46c0.03,0.06,0.08,0.06,0.13,0.05C7.58,8.5,7.59,8.51,7.59,8.51z"/>
	<path d="M8.36,8.21c0.03,0,0.06,0,0.09,0c0.02,0,0.03,0.01,0.03,0.03c0,0.02-0.01,0.02-0.03,0.02c-0.04,0-0.08,0-0.13,0.01
		c-0.03,0-0.06-0.01-0.06,0.03c-0.01,0.04-0.02,0.09,0,0.13c0.01,0.03,0.05,0.01,0.07,0.01c0.07,0,0.12,0.03,0.15,0.09
		C8.51,8.6,8.49,8.65,8.45,8.7C8.39,8.77,8.28,8.79,8.2,8.76C8.18,8.75,8.16,8.74,8.17,8.72c0.01-0.02,0.03-0.01,0.04,0
		c0.01,0.01,0.02,0.01,0.04,0.02C8.3,8.74,8.34,8.74,8.38,8.7C8.42,8.66,8.43,8.59,8.4,8.54C8.38,8.48,8.33,8.47,8.28,8.48
		C8.22,8.49,8.22,8.47,8.22,8.42c0-0.05,0-0.09,0-0.14c0-0.05,0.02-0.07,0.07-0.07C8.31,8.22,8.34,8.21,8.36,8.21
		C8.36,8.21,8.36,8.21,8.36,8.21z"/>
	<path d="M8.84,7.79C8.83,7.8,8.81,7.8,8.8,7.79c-0.03-0.04-0.07-0.02-0.1,0C8.68,7.8,8.65,7.8,8.62,7.8
		C8.58,7.8,8.54,7.78,8.54,7.72C8.53,7.68,8.55,7.63,8.6,7.62C8.63,7.6,8.67,7.6,8.71,7.59c0.04-0.01,0.06-0.03,0.05-0.07
		C8.76,7.49,8.75,7.46,8.7,7.45C8.66,7.44,8.62,7.46,8.57,7.48c0-0.04,0.01-0.06,0.04-0.06c0.12-0.03,0.23,0.02,0.21,0.16
		C8.82,7.64,8.81,7.72,8.84,7.79z M8.77,7.65c0-0.01,0-0.03-0.03-0.04C8.7,7.6,8.62,7.63,8.61,7.66c-0.02,0.03-0.02,0.06,0,0.09
		c0.02,0.03,0.05,0.03,0.08,0.02C8.74,7.75,8.77,7.72,8.77,7.65z"/>
	<path d="M6.67,7.71C6.64,7.8,6.58,7.79,6.51,7.79C6.44,7.78,6.38,7.75,6.36,7.68C6.33,7.59,6.34,7.52,6.39,7.44
		C6.44,7.38,6.5,7.38,6.57,7.39c0.06,0.01,0.1,0.04,0.12,0.1c0.03,0.07,0.01,0.09-0.06,0.1c-0.05,0-0.1,0-0.15,0
		c-0.06,0-0.07,0.03-0.05,0.08c0.03,0.07,0.1,0.1,0.17,0.07C6.62,7.74,6.64,7.72,6.67,7.71z M6.54,7.56
		c0.03-0.01,0.08,0.01,0.08-0.04c0.01-0.05-0.04-0.09-0.09-0.1c-0.03,0-0.06,0-0.09,0.03C6.44,7.48,6.42,7.5,6.43,7.53
		C6.44,7.56,6.47,7.55,6.5,7.55C6.51,7.56,6.53,7.56,6.54,7.56z"/>
	<path d="M8.22,7.77C8.17,7.82,8.1,7.81,8.04,7.8C7.97,7.78,7.91,7.74,7.9,7.66C7.88,7.58,7.89,7.5,7.95,7.44
		c0.04-0.05,0.13-0.05,0.19-0.01c-0.02,0-0.04,0-0.07,0.01c-0.05,0.01-0.09,0.04-0.1,0.09c0,0.02-0.01,0.03,0.01,0.04
		c0.03,0.01,0.17,0,0.18-0.01C8.2,7.51,8.15,7.48,8.14,7.44c0,0,0-0.01,0-0.01c0.05,0,0.07,0.04,0.09,0.08
		c0.03,0.07,0.02,0.1-0.06,0.1c-0.05,0-0.1,0-0.15,0c-0.06,0-0.07,0.02-0.06,0.07c0.01,0.05,0.05,0.09,0.11,0.09
		c0.04,0,0.08,0,0.12-0.02C8.21,7.75,8.22,7.76,8.22,7.77z"/>
	<path d="M7.28,8.2c0,0.17,0,0.33,0.01,0.49c0,0.01,0,0.01,0,0.02c0,0.03-0.02,0.05-0.05,0.04C7.2,8.75,7.2,8.73,7.2,8.71
		c0-0.08,0.01-0.16,0.01-0.24c0-0.06,0-0.13,0-0.19C7.17,8.26,7.14,8.31,7.09,8.29C7.16,8.26,7.22,8.23,7.28,8.2z"/>
	<path d="M7.47,7.77C7.43,7.76,7.4,7.75,7.36,7.77c-0.01-0.05,0-0.08-0.01-0.12c0-0.12,0.03-0.25-0.01-0.37
		C7.33,7.26,7.35,7.23,7.36,7.21C7.36,7.18,7.38,7.18,7.4,7.18c0.02,0,0.02,0.02,0.02,0.03c0,0.07,0,0.14-0.01,0.2
		c0,0.03,0.02,0.03,0.04,0.03l0,0C7.39,7.58,7.39,7.67,7.47,7.77L7.47,7.77z"/>
	<path d="M6.93,7.42c-0.1,0.02-0.1,0.02-0.1,0.1c0,0.04,0,0.08-0.01,0.13c0,0.06,0,0.11,0.09,0.13c-0.12,0.01-0.15-0.01-0.15-0.1
		c0-0.06,0.01-0.12,0.01-0.18c0-0.02,0.01-0.05-0.03-0.06c-0.02,0-0.02-0.02,0-0.03C6.79,7.4,6.77,7.37,6.78,7.34
		c0-0.02,0.02-0.03,0.04-0.03c0.03,0,0.03,0.03,0.02,0.04C6.83,7.41,6.88,7.41,6.93,7.42z"/>
	<path d="M7.79,7.48c0-0.08-0.01-0.17-0.01-0.25c0-0.03,0-0.05,0.03-0.05c0.03,0,0.03,0.02,0.03,0.05C7.84,7.4,7.83,7.57,7.84,7.74
		c0,0.03,0,0.05-0.03,0.05c-0.03,0-0.03-0.02-0.03-0.05C7.78,7.65,7.78,7.57,7.79,7.48C7.78,7.48,7.79,7.48,7.79,7.48z"/>
	<path d="M7.46,7.46c0.05-0.08,0.16-0.08,0.22,0c0.07,0.09,0.06,0.28-0.1,0.33C7.54,7.8,7.5,7.8,7.47,7.77c0,0,0,0,0,0
		c0.13,0,0.18-0.04,0.19-0.17C7.67,7.46,7.59,7.41,7.46,7.46L7.46,7.46z"/>
	<path d="M7.13,7.58C7.16,7.56,7.2,7.55,7.18,7.5C7.16,7.46,7.14,7.43,7.09,7.43c-0.04,0-0.07,0.01-0.1,0.01
		C6.97,7.42,6.98,7.4,7,7.4c0.07-0.02,0.13-0.01,0.2,0.02c0.04,0.02,0.06,0.05,0.05,0.1c0,0.04,0,0.07,0,0.11
		c0,0.05-0.01,0.1,0.03,0.14C7.22,7.8,7.18,7.74,7.14,7.76l0,0c0.03-0.04,0.05-0.07,0.05-0.12C7.18,7.6,7.16,7.59,7.13,7.58
		L7.13,7.58z"/>
	<path d="M8.33,7.62c0-0.05,0-0.09,0-0.14c0-0.02-0.01-0.06,0.03-0.06c0.04,0,0.02,0.04,0.04,0.06c0.01,0.01,0.01,0.02,0,0.03
		C8.37,7.58,8.37,7.66,8.38,7.73c0,0.01,0,0.01,0,0.02c0,0.03-0.01,0.05-0.04,0.04c-0.03,0-0.03-0.02-0.03-0.04
		C8.32,7.7,8.32,7.66,8.33,7.62C8.32,7.62,8.33,7.62,8.33,7.62z"/>
	<path d="M7.14,7.76c-0.03,0.03-0.06,0.03-0.1,0.03c-0.06,0-0.09-0.03-0.1-0.08c-0.01-0.05,0.02-0.1,0.07-0.11
		c0.04-0.01,0.08-0.01,0.12-0.01c0,0,0,0,0,0C7.12,7.6,7.09,7.6,7.07,7.61C7.03,7.62,7.01,7.65,7.01,7.7
		c0.01,0.04,0.03,0.06,0.07,0.06C7.1,7.75,7.12,7.76,7.14,7.76L7.14,7.76z"/>
	<path d="M6.63,6.07c-0.04,0-0.06-0.02-0.07-0.06C6.55,5.97,6.57,5.95,6.61,5.95c0.04,0,0.08,0.02,0.08,0.05
		C6.69,6.04,6.66,6.07,6.63,6.07z"/>
	<path d="M9.69,4.87c0,0.03-0.02,0.05-0.05,0.06C9.6,4.93,9.58,4.91,9.57,4.87c0-0.03,0.01-0.06,0.05-0.06
		C9.66,4.81,9.69,4.83,9.69,4.87z"/>
	<path d="M9.89,4.93c-0.03,0-0.06-0.02-0.06-0.06c0-0.04,0.02-0.05,0.05-0.06c0.04,0,0.07,0.03,0.07,0.06
		C9.95,4.91,9.93,4.92,9.89,4.93z"/>
	<path d="M7.55,8.72c0.01,0,0.02,0,0.03,0.01c-0.08,0.05-0.12,0.05-0.19,0C7.45,8.72,7.5,8.74,7.55,8.72z"/>
	<path d="M8.42,7.47c0-0.01,0-0.02,0-0.03c0.02-0.03,0.05-0.03,0.07-0.02c0.01,0,0.01,0.02,0.01,0.02c0,0.04-0.04,0.03-0.06,0.03
		C8.44,7.48,8.43,7.47,8.42,7.47z"/>
	<path d="M9.17,7.74C9.16,7.75,9.16,7.76,9.15,7.77c0,0,0,0,0,0C9.15,7.75,9.16,7.74,9.17,7.74L9.17,7.74z"/>
	<path d="M8.21,7.75c0.01,0,0.01-0.01,0.02,0c0.01,0.01,0,0.02,0,0.02C8.22,7.76,8.21,7.75,8.21,7.75z"/>
</g>
</svg>
